G75*
G70*
%OFA0B0*%
%FSLAX24Y24*%
%IPPOS*%
%LPD*%
%AMOC8*
5,1,8,0,0,1.08239X$1,22.5*
%
%ADD10C,0.0000*%
%ADD11C,0.0060*%
D10*
X000413Y000306D02*
X000426Y004132D01*
X008741Y004153D01*
X008758Y000306D01*
X000413Y000306D01*
D11*
X002828Y001972D02*
X003042Y001758D01*
X003255Y001758D01*
X003469Y001972D01*
X003148Y002188D02*
X002935Y002188D01*
X002828Y002295D01*
X002828Y002615D01*
X002828Y002832D02*
X003042Y003046D01*
X003255Y003046D01*
X003469Y002832D01*
X003255Y002615D02*
X003255Y002295D01*
X003148Y002188D01*
X005465Y002092D02*
X005465Y001879D01*
X005465Y001985D02*
X005892Y001985D01*
X005892Y001879D01*
X006106Y001985D02*
X006212Y001985D01*
X005785Y002308D02*
X005572Y002308D01*
X005465Y002415D01*
X005465Y002629D01*
X005679Y002735D02*
X005679Y002308D01*
X005785Y002308D02*
X005892Y002415D01*
X005892Y002629D01*
X005785Y002735D01*
X005679Y002735D01*
X005679Y002953D02*
X005892Y003273D01*
X005679Y002953D02*
X005465Y003273D01*
X005465Y002953D02*
X006106Y002953D01*
X006106Y001661D02*
X005465Y001661D01*
X006106Y001234D01*
X005465Y001234D01*
X006343Y000990D02*
X006343Y000883D01*
X006770Y000456D01*
X006343Y000456D01*
X006988Y000456D02*
X006988Y000776D01*
X007095Y000883D01*
X007201Y000776D01*
X007201Y000456D01*
X007415Y000456D02*
X007415Y000883D01*
X007308Y000883D01*
X007201Y000776D01*
X007632Y000883D02*
X007953Y000883D01*
X008059Y000776D01*
X008059Y000563D01*
X007953Y000456D01*
X007632Y000456D01*
X007632Y001096D01*
X008277Y000776D02*
X008384Y000883D01*
X008704Y000883D01*
X008704Y001096D02*
X008704Y000456D01*
X008384Y000456D01*
X008277Y000563D01*
X008277Y000776D01*
X006770Y000990D02*
X006664Y001096D01*
X006450Y001096D01*
X006343Y000990D01*
M02*
