G75*
G70*
%OFA0B0*%
%FSLAX24Y24*%
%IPPOS*%
%LPD*%
%AMOC8*
5,1,8,0,0,1.08239X$1,22.5*
%
%ADD10C,0.0000*%
%ADD11C,0.0600*%
%ADD12R,0.0600X0.0600*%
%ADD13OC8,0.0600*%
%ADD14OC8,0.0520*%
%ADD15R,0.0866X0.0197*%
%ADD16C,0.0160*%
%ADD17C,0.0356*%
D10*
X000413Y000306D02*
X000426Y004132D01*
X008741Y004153D01*
X008758Y000306D01*
X000413Y000306D01*
D11*
X000850Y000625D02*
X000850Y001225D01*
X001850Y001225D02*
X001850Y000625D01*
D12*
X007225Y003685D03*
D13*
X008225Y003685D03*
X008225Y002685D03*
X007225Y002685D03*
X007225Y001685D03*
X008225Y001685D03*
X005920Y000706D03*
X004920Y000706D03*
X003920Y000706D03*
X002920Y000706D03*
X002920Y003706D03*
X003920Y003706D03*
X004920Y003706D03*
X005920Y003706D03*
D14*
X001957Y003335D03*
X000957Y003335D03*
X000828Y002190D03*
X001828Y002190D03*
D15*
X003179Y001960D03*
X003179Y001460D03*
X003179Y002460D03*
X003179Y002956D03*
X005662Y002956D03*
X005662Y002456D03*
X005662Y001956D03*
X005662Y001456D03*
D16*
X006414Y001456D01*
X006458Y001500D01*
X006641Y001850D02*
X006806Y001685D01*
X007225Y001685D01*
X006641Y001850D02*
X006311Y001850D01*
X006180Y001714D01*
X005194Y001714D01*
X004998Y001531D01*
X004877Y001550D01*
X004521Y001906D01*
X004490Y001955D01*
X004037Y002408D01*
X003489Y002956D01*
X003179Y002956D01*
X002440Y002849D02*
X002440Y003226D01*
X002920Y003706D01*
X003920Y003706D02*
X003920Y003706D01*
X003920Y003069D01*
X004155Y002834D01*
X004155Y002792D01*
X004491Y002456D01*
X005662Y002456D01*
X006997Y002456D01*
X007225Y002685D01*
X006800Y003191D02*
X006568Y002959D01*
X005665Y002959D01*
X005662Y002956D01*
X004499Y002956D01*
X004495Y002960D01*
X004920Y003706D02*
X005372Y003254D01*
X006210Y003254D01*
X006640Y003685D01*
X007225Y003685D01*
X007547Y003191D02*
X008041Y003685D01*
X008225Y003685D01*
X007547Y003191D02*
X006800Y003191D01*
X004935Y001986D02*
X004887Y001956D01*
X005662Y001956D01*
X004456Y001480D02*
X004369Y001418D01*
X003839Y001418D01*
X003789Y001443D01*
X003753Y001669D01*
X003498Y001960D01*
X003179Y001960D01*
X003503Y002460D02*
X003785Y002177D01*
X003785Y002021D01*
X004029Y001778D01*
X004033Y001778D01*
X004102Y001793D01*
X003179Y001460D02*
X003171Y001452D01*
X002452Y001464D01*
X003179Y001460D02*
X003292Y001158D01*
X005136Y001160D01*
X005438Y001150D01*
X005920Y000706D01*
X007681Y000706D01*
X008226Y001251D01*
X008226Y001684D01*
X008225Y001685D01*
X003503Y002460D02*
X003179Y002460D01*
X002440Y002849D02*
X001828Y002237D01*
X001828Y002190D01*
X001813Y000717D01*
X001850Y000925D01*
D17*
X002452Y001464D03*
X004102Y001793D03*
X004456Y001480D03*
X004935Y001986D03*
X004037Y002408D03*
X004495Y002960D03*
X006458Y001500D03*
M02*
