%
M48
M72
T01C0.0140
T02C0.0320
T03C0.0400
%
T01
X2440Y1711
X4231Y1730
X4822Y1494
X4822Y2085
X4468Y2597
X6318Y2439
X6357Y2912
T02
X938Y3320
X1938Y3320
X1809Y2175
X809Y2175
T03
X830Y910
X1830Y910
X2901Y691
X3901Y691
X4901Y691
X5901Y691
X7206Y1670
X8206Y1670
X8206Y2670
X7206Y2670
X7206Y3670
X8206Y3670
X5901Y3691
X4901Y3691
X3901Y3691
X2901Y3691
M30
