%
M48
M72
T01C0.0236
T02C0.0320
T03C0.0400
%
T01
X2452Y1464
X4102Y1793
X4456Y1480
X4935Y1986
X4037Y2408
X4495Y2960
X6458Y1500
T02
X1957Y3335
X957Y3335
X828Y2190
X1828Y2190
T03
X850Y925
X1850Y925
X2920Y706
X3920Y706
X4920Y706
X5920Y706
X7225Y1685
X8225Y1685
X8225Y2685
X7225Y2685
X7225Y3685
X8225Y3685
X5920Y3706
X4920Y3706
X3920Y3706
X2920Y3706
M30
