G75*
G70*
%OFA0B0*%
%FSLAX24Y24*%
%IPPOS*%
%LPD*%
%AMOC8*
5,1,8,0,0,1.08239X$1,22.5*
%
%ADD10C,0.0000*%
%ADD11C,0.0600*%
%ADD12R,0.0600X0.0600*%
%ADD13OC8,0.0600*%
%ADD14OC8,0.0520*%
%ADD15C,0.0356*%
%ADD16C,0.0160*%
D10*
X000413Y000306D02*
X000426Y004132D01*
X008741Y004153D01*
X008758Y000306D01*
X000413Y000306D01*
D11*
X000850Y000625D02*
X000850Y001225D01*
X001850Y001225D02*
X001850Y000625D01*
D12*
X007225Y003685D03*
D13*
X008225Y003685D03*
X008225Y002685D03*
X007225Y002685D03*
X007225Y001685D03*
X008225Y001685D03*
X005920Y000706D03*
X004920Y000706D03*
X003920Y000706D03*
X002920Y000706D03*
X002920Y003706D03*
X003920Y003706D03*
X004920Y003706D03*
X005920Y003706D03*
D14*
X001957Y003335D03*
X000957Y003335D03*
X000828Y002190D03*
X001828Y002190D03*
D15*
X002452Y001464D03*
X004102Y001793D03*
X004456Y001480D03*
X004935Y001986D03*
X004037Y002408D03*
X004495Y002960D03*
X006458Y001500D03*
D16*
X006458Y001798D01*
X006834Y002175D01*
X007715Y002175D01*
X008225Y002685D01*
X006458Y003169D02*
X005920Y003706D01*
X004935Y003569D02*
X004920Y003706D01*
X004935Y003569D02*
X004935Y001986D01*
X004102Y001793D02*
X004098Y001294D01*
X003920Y001116D01*
X003920Y000707D01*
X003920Y000706D01*
X004456Y001480D02*
X004904Y000722D01*
X004920Y000706D01*
X003762Y001283D02*
X003649Y001170D01*
X003384Y001170D01*
X002920Y000706D01*
X003762Y001283D02*
X003762Y001662D01*
X003701Y001723D01*
X003701Y001806D01*
X004037Y002142D01*
X004037Y002408D01*
X003972Y002960D02*
X003732Y003200D01*
X003426Y003200D01*
X002920Y003706D01*
X001957Y003335D02*
X001957Y002850D01*
X002380Y002427D01*
X002384Y001696D01*
X002452Y001464D01*
X002362Y001689D01*
X001490Y001673D01*
X000857Y000817D01*
X000850Y000925D01*
X000828Y002190D02*
X000828Y003206D01*
X000957Y003335D01*
X003972Y002960D02*
X004495Y002960D01*
X006458Y003169D02*
X006458Y001500D01*
M02*
