G75*
G70*
%OFA0B0*%
%FSLAX24Y24*%
%IPPOS*%
%LPD*%
%AMOC8*
5,1,8,0,0,1.08239X$1,22.5*
%
%ADD10C,0.0000*%
%ADD11C,0.0060*%
%ADD12C,0.0030*%
%ADD13C,0.0079*%
%ADD14C,0.0160*%
%ADD15C,0.0120*%
D10*
X000394Y000291D02*
X000407Y004117D01*
X008722Y004138D01*
X008738Y000291D01*
X000394Y000291D01*
D11*
X001791Y001492D02*
X001791Y001919D01*
X001577Y001706D02*
X002004Y001706D01*
X000886Y001760D02*
X000459Y001760D01*
X006603Y001030D02*
X006603Y000389D01*
X006924Y000389D01*
X007030Y000496D01*
X007030Y000603D01*
X006924Y000710D01*
X006603Y000710D01*
X006924Y000710D02*
X007030Y000816D01*
X007030Y000923D01*
X006924Y001030D01*
X006603Y001030D01*
X007248Y001030D02*
X007568Y001030D01*
X007675Y000923D01*
X007675Y000496D01*
X007568Y000389D01*
X007248Y000389D01*
X007248Y001030D01*
X007892Y001030D02*
X008106Y000816D01*
X008319Y001030D01*
X008319Y000389D01*
X007892Y000389D02*
X007892Y001030D01*
D12*
X004665Y002065D02*
X004471Y002065D01*
X004568Y002065D02*
X004568Y002356D01*
X004471Y002259D01*
X004370Y002307D02*
X004322Y002356D01*
X004225Y002356D01*
X004176Y002307D01*
X004176Y002114D01*
X004225Y002065D01*
X004322Y002065D01*
X004370Y002114D01*
X004075Y002114D02*
X004027Y002065D01*
X003930Y002065D01*
X003882Y002114D01*
X003882Y002356D01*
X004075Y002356D02*
X004075Y002114D01*
X001574Y003053D02*
X001574Y003198D01*
X001525Y003247D01*
X001332Y003247D01*
X001283Y003198D01*
X001283Y003053D01*
X001574Y003053D01*
X001574Y003348D02*
X001574Y003541D01*
X001574Y003445D02*
X001283Y003445D01*
X001380Y003348D01*
X001456Y002439D02*
X001456Y002246D01*
X001456Y002342D02*
X001165Y002342D01*
X001262Y002246D01*
X001214Y002144D02*
X001310Y002144D01*
X001359Y002096D01*
X001359Y001951D01*
X001456Y001951D02*
X001165Y001951D01*
X001165Y002096D01*
X001214Y002144D01*
X001359Y002048D02*
X001456Y002144D01*
D13*
X002224Y003069D02*
X002224Y003581D01*
D14*
X003720Y002793D02*
X003722Y002814D01*
X003728Y002834D01*
X003737Y002854D01*
X003749Y002871D01*
X003764Y002885D01*
X003782Y002897D01*
X003802Y002905D01*
X003822Y002910D01*
X003843Y002911D01*
X003864Y002908D01*
X003884Y002902D01*
X003903Y002891D01*
X003920Y002878D01*
X003933Y002862D01*
X003944Y002844D01*
X003952Y002824D01*
X003956Y002804D01*
X003956Y002782D01*
X003952Y002762D01*
X003944Y002742D01*
X003933Y002724D01*
X003920Y002708D01*
X003903Y002695D01*
X003884Y002684D01*
X003864Y002678D01*
X003843Y002675D01*
X003822Y002676D01*
X003802Y002681D01*
X003782Y002689D01*
X003764Y002701D01*
X003749Y002715D01*
X003737Y002732D01*
X003728Y002752D01*
X003722Y002772D01*
X003720Y002793D01*
D15*
X006830Y003305D02*
X006830Y004053D01*
X007578Y004053D01*
X007578Y003305D01*
X006830Y003305D01*
M02*
