G75*
G70*
%OFA0B0*%
%FSLAX24Y24*%
%IPPOS*%
%LPD*%
%AMOC8*
5,1,8,0,0,1.08239X$1,22.5*
%
%ADD10C,0.0040*%
%ADD11OC8,0.0630*%
%ADD12OC8,0.0660*%
%ADD13OC8,0.0700*%
%ADD14OC8,0.0520*%
%ADD15C,0.0440*%
%ADD16C,0.0600*%
%ADD17R,0.0800X0.0800*%
%ADD18C,0.0800*%
%ADD19OC8,0.0620*%
%ADD20C,0.0620*%
%ADD21C,0.0740*%
%ADD22R,0.0600X0.0600*%
%ADD23OC8,0.0600*%
%ADD24C,0.0315*%
%ADD25C,0.0320*%
D10*
X005747Y006870D02*
X005747Y007130D01*
X005834Y007217D01*
X005920Y007130D01*
X005920Y006870D01*
X006094Y006870D02*
X006094Y007217D01*
X006007Y007217D01*
X005920Y007130D01*
X006263Y007130D02*
X006263Y006957D01*
X006349Y006870D01*
X006523Y006870D01*
X006609Y006957D01*
X006609Y007130D01*
X006523Y007217D01*
X006349Y007217D01*
X006263Y007130D01*
X006778Y007217D02*
X007038Y007217D01*
X007125Y007130D01*
X007125Y006957D01*
X007038Y006870D01*
X006778Y006870D01*
X007296Y006870D02*
X007383Y006870D01*
X007383Y006957D01*
X007296Y006957D01*
X007296Y006870D01*
X007552Y006957D02*
X007638Y007043D01*
X007812Y007043D01*
X007899Y007130D01*
X007812Y007217D01*
X007552Y007217D01*
X007552Y006957D02*
X007638Y006870D01*
X007899Y006870D01*
X008067Y006870D02*
X008067Y007130D01*
X008154Y007217D01*
X008414Y007217D01*
X008414Y006870D01*
X008583Y006957D02*
X008583Y007130D01*
X008670Y007217D01*
X008843Y007217D01*
X008930Y007130D01*
X008930Y006957D01*
X008843Y006870D01*
X008670Y006870D01*
X008583Y006957D01*
X009100Y006870D02*
X009274Y006870D01*
X009187Y006870D02*
X009187Y007217D01*
X009274Y007217D01*
X009444Y007217D02*
X009617Y007217D01*
X009531Y007304D02*
X009531Y006957D01*
X009444Y006870D01*
X009786Y006870D02*
X010046Y006870D01*
X010133Y006957D01*
X010133Y007130D01*
X010046Y007217D01*
X009786Y007217D01*
X010302Y007217D02*
X010302Y006870D01*
X010562Y006870D01*
X010649Y006957D01*
X010649Y007217D01*
X010817Y007217D02*
X011078Y007217D01*
X011164Y007130D01*
X011164Y006957D01*
X011078Y006870D01*
X010817Y006870D01*
X010817Y007390D01*
X011333Y007130D02*
X011333Y006957D01*
X011420Y006870D01*
X011593Y006870D01*
X011680Y006957D01*
X011680Y007130D01*
X011593Y007217D01*
X011420Y007217D01*
X011333Y007130D01*
X011849Y007217D02*
X011936Y007217D01*
X012110Y007043D01*
X012110Y006870D02*
X012110Y007217D01*
X012278Y007304D02*
X012278Y007130D01*
X012365Y007043D01*
X012625Y007043D01*
X012625Y006870D02*
X012625Y007390D01*
X012365Y007390D01*
X012278Y007304D01*
X012266Y007570D02*
X011919Y007570D01*
X012092Y007570D02*
X012092Y008090D01*
X012266Y007917D01*
X012434Y007917D02*
X012608Y007570D01*
X012781Y007917D01*
X013055Y007390D02*
X013055Y006870D01*
X013055Y007043D02*
X012795Y007217D01*
X013055Y007043D02*
X012795Y006870D01*
X013224Y007043D02*
X013571Y007043D01*
X013571Y006957D02*
X013571Y007130D01*
X013484Y007217D01*
X013310Y007217D01*
X013224Y007130D01*
X013224Y007043D01*
X013310Y006870D02*
X013484Y006870D01*
X013571Y006957D01*
X013741Y006870D02*
X013914Y006870D01*
X013828Y006870D02*
X013828Y007217D01*
X013914Y007217D01*
X013828Y007390D02*
X013828Y007477D01*
X013726Y007570D02*
X013813Y007657D01*
X013813Y007830D01*
X013726Y007917D01*
X013552Y007917D01*
X013466Y007830D01*
X013466Y007657D01*
X013552Y007570D01*
X013726Y007570D01*
X013981Y007570D02*
X013981Y007830D01*
X014068Y007917D01*
X014328Y007917D01*
X014328Y007570D01*
X014499Y007570D02*
X014672Y007570D01*
X014585Y007570D02*
X014585Y007917D01*
X014672Y007917D01*
X014841Y007917D02*
X014841Y007570D01*
X015101Y007570D01*
X015188Y007657D01*
X015188Y007917D01*
X015356Y008004D02*
X015356Y007657D01*
X015443Y007570D01*
X015703Y007570D01*
X015703Y008090D01*
X015443Y008090D01*
X015356Y008004D01*
X015872Y007830D02*
X015872Y007743D01*
X016219Y007743D01*
X016219Y007657D02*
X016219Y007830D01*
X016132Y007917D01*
X015959Y007917D01*
X015872Y007830D01*
X016132Y007570D02*
X016219Y007657D01*
X016132Y007570D02*
X015959Y007570D01*
X015951Y007230D02*
X015864Y007144D01*
X015864Y006970D01*
X015951Y006883D01*
X016211Y006883D01*
X016211Y006710D02*
X016211Y007230D01*
X015951Y007230D01*
X015696Y007144D02*
X015609Y007230D01*
X015435Y007230D01*
X015349Y007144D01*
X015349Y007057D01*
X015435Y006970D01*
X015349Y006883D01*
X015349Y006797D01*
X015435Y006710D01*
X015609Y006710D01*
X015696Y006797D01*
X015864Y006710D02*
X016038Y006883D01*
X016380Y006710D02*
X016727Y006710D01*
X016553Y006710D02*
X016553Y007230D01*
X016727Y007057D01*
X016896Y007230D02*
X016896Y006883D01*
X017069Y006710D01*
X017243Y006883D01*
X017243Y007230D01*
X017078Y007570D02*
X017164Y007657D01*
X017078Y007743D01*
X016817Y007743D01*
X016817Y007830D02*
X016817Y007570D01*
X017078Y007570D01*
X017333Y007657D02*
X017420Y007570D01*
X017680Y007570D01*
X017680Y008090D01*
X017420Y008090D01*
X017333Y008004D01*
X017333Y007917D01*
X017420Y007830D01*
X017680Y007830D01*
X017420Y007830D02*
X017333Y007743D01*
X017333Y007657D01*
X017078Y007917D02*
X016904Y007917D01*
X016817Y007830D01*
X016649Y007743D02*
X016475Y007917D01*
X016388Y007917D01*
X016649Y007917D02*
X016649Y007570D01*
X015522Y006970D02*
X015435Y006970D01*
X014430Y006870D02*
X014430Y007390D01*
X014083Y006870D01*
X014083Y007390D01*
X014585Y008090D02*
X014585Y008177D01*
X009187Y007477D02*
X009187Y007390D01*
D11*
X009050Y008800D03*
X008050Y008800D03*
X007050Y008800D03*
X006050Y008800D03*
X005050Y008800D03*
X004050Y008800D03*
X004050Y005800D03*
X005050Y005800D03*
X006050Y005800D03*
X007050Y005800D03*
X008050Y005800D03*
X009050Y005800D03*
X010050Y005800D03*
X011050Y005800D03*
X012050Y005800D03*
X013050Y005800D03*
X014050Y005800D03*
X015050Y005800D03*
X016050Y005800D03*
X017050Y005800D03*
X017050Y008800D03*
X016050Y008800D03*
X015050Y008800D03*
X014050Y008800D03*
X013050Y008800D03*
X012050Y008800D03*
X011050Y008800D03*
X010050Y008800D03*
D12*
X004150Y003450D03*
X004150Y001450D03*
D13*
X004050Y010400D03*
X005050Y010400D03*
X006050Y010400D03*
X007050Y010400D03*
X008050Y010400D03*
X009050Y010400D03*
X009050Y011400D03*
X008050Y011400D03*
X007050Y011400D03*
X006050Y011400D03*
X005050Y011400D03*
X004050Y011400D03*
X004050Y012400D03*
X005050Y012400D03*
X006050Y012400D03*
X007050Y012400D03*
X008050Y012400D03*
X009050Y012400D03*
X012050Y012350D03*
X013050Y012350D03*
X014050Y012350D03*
X015050Y012350D03*
X016050Y012350D03*
X017050Y012350D03*
X017050Y011350D03*
X016050Y011350D03*
X015050Y011350D03*
X014050Y011350D03*
X013050Y011350D03*
X012050Y011350D03*
D14*
X011050Y011350D03*
X011050Y012350D03*
X002950Y009300D03*
X002950Y008300D03*
X002900Y007100D03*
X002900Y006100D03*
X010850Y002950D03*
X010900Y003800D03*
X010900Y004800D03*
X010850Y001950D03*
D15*
X012230Y002050D02*
X012670Y002050D01*
X012670Y004050D02*
X012230Y004050D01*
D16*
X006050Y004400D02*
X006050Y005000D01*
X005050Y005000D02*
X005050Y004400D01*
X004050Y004400D02*
X004050Y005000D01*
X001950Y007100D02*
X001350Y007100D01*
X001350Y008100D02*
X001950Y008100D01*
X001950Y009100D02*
X001350Y009100D01*
D17*
X001800Y004450D03*
D18*
X001800Y002481D03*
D19*
X002200Y011950D03*
D20*
X002200Y010950D03*
D21*
X005050Y003550D03*
X006050Y003550D03*
X007050Y003550D03*
X008050Y003550D03*
X009050Y003550D03*
X009050Y002500D03*
X008050Y002500D03*
X007050Y002500D03*
X006050Y002500D03*
X005050Y002500D03*
X005050Y001400D03*
X006050Y001400D03*
X007050Y001400D03*
X008050Y001400D03*
X009050Y001400D03*
D22*
X014050Y001450D03*
X014050Y002500D03*
X014050Y003550D03*
X017050Y010350D03*
D23*
X016050Y010350D03*
X015050Y010350D03*
X014050Y010350D03*
X013050Y010350D03*
X012050Y010350D03*
X011050Y010350D03*
X015050Y003550D03*
X016050Y003550D03*
X017050Y003550D03*
X017050Y002500D03*
X016050Y002500D03*
X015050Y002500D03*
X015050Y001450D03*
X016050Y001450D03*
X017050Y001450D03*
D24*
X001800Y002481D02*
X001750Y002480D01*
X003350Y000780D01*
X004750Y000780D01*
X004900Y001330D01*
X005050Y001400D01*
X006050Y001400D01*
X007050Y001400D01*
X008050Y001400D01*
X009050Y001400D01*
X009200Y001470D01*
X009290Y001470D01*
X009950Y002130D01*
X010630Y001450D01*
X014050Y001450D01*
X015050Y001450D01*
X016050Y001450D01*
X017050Y001450D01*
X017050Y002500D02*
X016050Y002500D01*
X015050Y002500D01*
X014050Y002500D01*
X013130Y002200D02*
X012520Y002200D01*
X012450Y002050D01*
X012350Y001950D01*
X010850Y001950D01*
X009950Y002130D02*
X010700Y002880D01*
X010850Y002950D01*
X010850Y003800D01*
X010900Y003800D01*
X010780Y003950D01*
X010400Y003950D01*
X009980Y003510D02*
X009980Y005650D01*
X010050Y005800D01*
X009050Y005800D02*
X009050Y003550D01*
X009120Y002650D02*
X009980Y003510D01*
X009120Y002650D02*
X009050Y002500D01*
X008050Y002500D01*
X007050Y002500D01*
X006050Y002500D01*
X005050Y002500D01*
X005050Y002400D01*
X004150Y001450D01*
X001800Y002481D02*
X001680Y002630D01*
X000810Y002630D01*
X000810Y008250D01*
X001580Y008250D01*
X001650Y008100D01*
X002300Y008100D02*
X002370Y008250D01*
X002370Y008720D01*
X002950Y009300D01*
X003460Y008810D02*
X003460Y009800D01*
X002350Y009800D01*
X002280Y009950D01*
X002200Y009950D01*
X002200Y010950D01*
X002130Y011800D02*
X002200Y011950D01*
X002650Y012400D01*
X004050Y012400D01*
X005050Y012400D01*
X006050Y012400D01*
X007050Y012400D01*
X008050Y012400D01*
X009050Y012400D01*
X009200Y011470D02*
X009050Y011400D01*
X008050Y011400D01*
X007050Y011400D01*
X006050Y011400D01*
X005050Y011400D01*
X004050Y011400D01*
X003460Y011400D01*
X003460Y009800D01*
X004050Y010400D02*
X004050Y008800D01*
X003460Y008810D02*
X002950Y008300D01*
X001650Y009100D02*
X002350Y009800D01*
X000810Y010480D02*
X000810Y008250D01*
X001650Y007100D02*
X001650Y004450D01*
X001800Y004450D01*
X005050Y004700D02*
X005050Y003550D01*
X006050Y003550D02*
X006050Y004700D01*
X006050Y005800D01*
X005050Y005800D02*
X005050Y004700D01*
X007050Y005800D02*
X007050Y003550D01*
X008050Y003550D02*
X008050Y005800D01*
X010900Y004800D02*
X011700Y004800D01*
X011770Y004950D01*
X011770Y005520D01*
X012050Y005800D01*
X013050Y005800D02*
X013050Y004320D01*
X013130Y004240D01*
X013130Y002200D01*
X014050Y003550D02*
X014050Y005800D01*
X015050Y005800D02*
X015050Y003550D01*
X016050Y003550D02*
X016050Y005800D01*
X017050Y005800D02*
X017050Y003550D01*
X017120Y002650D02*
X018040Y003570D01*
X017120Y002650D02*
X017050Y002500D01*
X012450Y004050D02*
X011700Y004800D01*
X012050Y008800D02*
X012050Y010350D01*
X012050Y011350D01*
X011900Y011420D01*
X011470Y011850D01*
X010840Y011850D01*
X011050Y012350D02*
X012050Y012350D01*
X013050Y012350D01*
X014050Y012350D01*
X015050Y012350D01*
X016050Y012350D01*
X017050Y012350D01*
X017120Y012200D01*
X017050Y011350D02*
X016050Y011350D01*
X015050Y011350D01*
X014050Y011350D01*
X013050Y011350D01*
X012050Y011350D01*
X011050Y011350D02*
X011050Y010350D01*
X011050Y008800D01*
X009050Y008800D02*
X009050Y010400D01*
X008050Y010400D02*
X008050Y008800D01*
X007050Y008800D02*
X007050Y010400D01*
X006050Y010400D02*
X006050Y008800D01*
X005050Y008800D02*
X005050Y010400D01*
X002130Y011800D02*
X000810Y010480D01*
X013050Y010350D02*
X013050Y008800D01*
X014050Y008800D02*
X014050Y010350D01*
X015050Y010350D02*
X015050Y008800D01*
X016050Y008800D02*
X016050Y010350D01*
X017050Y010350D02*
X017050Y008800D01*
D25*
X018040Y010960D02*
X017650Y011350D01*
X017050Y011350D01*
X018040Y010960D02*
X018040Y003570D01*
X018600Y002500D02*
X017500Y001400D01*
X017100Y001400D01*
X017050Y001450D01*
X018600Y002500D02*
X018600Y011300D01*
X017700Y012200D01*
X017120Y012200D01*
X012050Y008800D02*
X012050Y008600D01*
X011500Y008050D01*
X010050Y008050D01*
X009700Y007700D01*
X004050Y007700D01*
X003850Y007400D01*
X003850Y006800D01*
X004100Y006450D01*
X009400Y006450D01*
X010050Y005800D01*
X010400Y005100D02*
X010400Y003950D01*
X010400Y005100D02*
X011050Y005750D01*
X011050Y005800D01*
X009400Y008150D02*
X003750Y008150D01*
X003300Y007700D01*
X002700Y007700D01*
X002300Y008100D01*
X001650Y008100D01*
X002900Y007100D02*
X002350Y006400D01*
X002350Y005050D01*
X002800Y004600D01*
X002850Y004600D01*
X003300Y004150D01*
X003350Y004150D01*
X004050Y003450D01*
X004150Y003450D01*
X004050Y004700D02*
X003500Y004700D01*
X003000Y005200D01*
X002900Y006100D01*
X003000Y006850D02*
X004050Y005800D01*
X003000Y006850D02*
X002900Y007100D01*
X009050Y011400D02*
X009500Y011850D01*
X010840Y011850D01*
X010050Y008800D02*
X009400Y008150D01*
M02*
