%
M48
M72
T01C0.0240
T02C0.0320
T03C0.0400
T04C0.0512
%
T01
X12450Y2050
X12450Y4050
T02
X10900Y3800
X10850Y2950
X10850Y1950
X10900Y4800
X11050Y5800
X10050Y5800
X9050Y5800
X8050Y5800
X7050Y5800
X6050Y5800
X5050Y5800
X4050Y5800
X2900Y6100
X2900Y7100
X2950Y8300
X4050Y8800
X5050Y8800
X6050Y8800
X7050Y8800
X8050Y8800
X9050Y8800
X10050Y8800
X11050Y8800
X12050Y8800
X13050Y8800
X14050Y8800
X15050Y8800
X16050Y8800
X17050Y8800
X17050Y5800
X16050Y5800
X15050Y5800
X14050Y5800
X13050Y5800
X12050Y5800
X11050Y11350
X11050Y12350
X2950Y9300
X2200Y10950
X2200Y11950
X4150Y3450
X4150Y1450
T03
X5050Y1400
X6050Y1400
X7050Y1400
X8050Y1400
X9050Y1400
X9050Y2500
X8050Y2500
X7050Y2500
X6050Y2500
X5050Y2500
X5050Y3550
X6050Y3550
X7050Y3550
X8050Y3550
X9050Y3550
X6050Y4700
X5050Y4700
X4050Y4700
X1650Y7100
X1650Y8100
X1650Y9100
X4050Y10400
X5050Y10400
X6050Y10400
X7050Y10400
X8050Y10400
X9050Y10400
X9050Y11400
X8050Y11400
X7050Y11400
X6050Y11400
X5050Y11400
X4050Y11400
X4050Y12400
X5050Y12400
X6050Y12400
X7050Y12400
X8050Y12400
X9050Y12400
X11050Y10350
X12050Y10350
X13050Y10350
X14050Y10350
X15050Y10350
X16050Y10350
X17050Y10350
X17050Y11350
X16050Y11350
X15050Y11350
X14050Y11350
X13050Y11350
X12050Y11350
X12050Y12350
X13050Y12350
X14050Y12350
X15050Y12350
X16050Y12350
X17050Y12350
X17050Y3550
X16050Y3550
X15050Y3550
X14050Y3550
X14050Y2500
X15050Y2500
X16050Y2500
X17050Y2500
X17050Y1450
X16050Y1450
X15050Y1450
X14050Y1450
T04
X1800Y2481
X1800Y4450
M30
