G75*
G70*
%OFA0B0*%
%FSLAX24Y24*%
%IPPOS*%
%LPD*%
%AMOC8*
5,1,8,0,0,1.08239X$1,22.5*
%
%ADD10C,0.0000*%
%ADD11R,0.0320X0.0120*%
%ADD12R,0.0120X0.0320*%
%ADD13R,0.1280X0.1280*%
%ADD14R,0.0197X0.0236*%
%ADD15R,0.0236X0.0197*%
%ADD16R,0.0472X0.0217*%
%ADD17R,0.0413X0.0425*%
%ADD18R,0.0276X0.0669*%
%ADD19R,0.0315X0.0315*%
%ADD20C,0.0400*%
%ADD21C,0.0100*%
%ADD22C,0.0160*%
%ADD23C,0.0120*%
%ADD24C,0.0240*%
%ADD25C,0.0080*%
%ADD26C,0.0060*%
D10*
X000383Y000420D02*
X000383Y005931D01*
X008650Y005931D01*
X008650Y000420D01*
X000383Y000420D01*
D11*
X005003Y002702D03*
X005003Y002902D03*
X005003Y003092D03*
X005003Y003292D03*
X005003Y003492D03*
X005003Y003692D03*
X005003Y003882D03*
X005003Y004082D03*
X006943Y004082D03*
X006943Y003882D03*
X006943Y003692D03*
X006943Y003492D03*
X006943Y003292D03*
X006943Y003092D03*
X006943Y002902D03*
X006943Y002702D03*
D12*
X006663Y002422D03*
X006463Y002422D03*
X006273Y002422D03*
X006073Y002422D03*
X005873Y002422D03*
X005673Y002422D03*
X005483Y002422D03*
X005283Y002422D03*
X005283Y004362D03*
X005483Y004362D03*
X005673Y004362D03*
X005873Y004362D03*
X006073Y004362D03*
X006273Y004362D03*
X006463Y004362D03*
X006663Y004362D03*
D13*
X005973Y003392D03*
D14*
X004064Y004829D03*
X003709Y004829D03*
X003080Y003727D03*
X002725Y003727D03*
X007253Y004868D03*
X007607Y004868D03*
D15*
X002646Y004613D03*
X002646Y004258D03*
X002135Y004199D03*
X002135Y004553D03*
X001406Y004987D03*
X001406Y005341D03*
X002706Y002132D03*
X002706Y001778D03*
D16*
X002115Y002821D03*
X001091Y002821D03*
X001091Y003195D03*
X001091Y003569D03*
X002115Y003569D03*
D17*
X001574Y004179D03*
X000885Y004179D03*
X000786Y001817D03*
X001475Y001817D03*
D18*
X003493Y001896D03*
X003965Y001896D03*
X004438Y001896D03*
D19*
X002115Y001660D03*
X002115Y002250D03*
X000835Y004868D03*
X000835Y005459D03*
D20*
X002007Y005538D03*
X002507Y005538D03*
X003007Y005538D03*
X003507Y005538D03*
X004007Y005538D03*
X004507Y005538D03*
X005257Y005538D03*
X005757Y005538D03*
X006257Y005538D03*
X006757Y005538D03*
X007257Y005538D03*
X007757Y005538D03*
X008257Y005538D03*
X008257Y004313D03*
X008257Y003813D03*
X008257Y003313D03*
X008257Y002813D03*
X008257Y002313D03*
X008257Y001813D03*
X008257Y001313D03*
X008257Y000813D03*
X007489Y000813D03*
X006989Y000813D03*
X006489Y000813D03*
X005989Y000813D03*
X005489Y000813D03*
X004989Y000813D03*
X004489Y000813D03*
X003989Y000813D03*
X003489Y000813D03*
X002989Y000813D03*
X002489Y000813D03*
X001282Y000813D03*
X000782Y000813D03*
D21*
X003080Y002920D02*
X002765Y003235D01*
X002765Y003471D01*
X002646Y003589D01*
X002646Y003589D01*
X002135Y003589D01*
X002135Y004101D01*
X002135Y004199D01*
X002135Y004179D01*
X002194Y004179D01*
X002587Y004179D01*
X002646Y004258D01*
X002607Y004179D01*
X002765Y004179D01*
X002942Y004357D01*
X002942Y004888D01*
X003493Y005439D01*
X003493Y005538D01*
X003507Y005538D01*
X001583Y004514D02*
X001583Y004199D01*
X001574Y004179D01*
X001662Y004179D01*
X002135Y004179D01*
X002587Y004179D02*
X002607Y004179D01*
X001583Y004514D02*
X001426Y004672D01*
X001426Y004908D01*
X001406Y004928D01*
X001406Y004987D01*
X003670Y002920D02*
X004241Y003490D01*
X004989Y003490D01*
X005003Y003492D01*
X005028Y003097D02*
X004576Y003097D01*
X005003Y003092D02*
X005028Y003097D01*
X003670Y002920D02*
X003080Y002920D01*
X006879Y002900D02*
X007292Y002900D01*
X007391Y002802D01*
X007391Y002034D01*
D22*
X002194Y004179D02*
X002135Y004199D01*
X002135Y003589D02*
X002115Y003569D01*
X001091Y003569D02*
X000737Y003569D01*
X000619Y003451D01*
X000619Y002939D01*
X000737Y002821D01*
X001091Y002821D01*
X001052Y002782D01*
X001052Y002408D01*
X000786Y002142D01*
X000786Y001817D01*
X000776Y001798D01*
X000776Y000813D01*
X000782Y000813D01*
D23*
X002646Y003589D02*
X002646Y003648D01*
X002725Y003727D01*
X002646Y003589D01*
X006879Y002900D02*
X006943Y002902D01*
D24*
X007391Y002802D03*
X007509Y003097D03*
X007332Y003353D03*
X007922Y003569D03*
X007450Y003845D03*
X007450Y004199D03*
X007194Y004396D03*
X006820Y004868D03*
X005914Y004731D03*
X005678Y004967D03*
X005442Y004731D03*
X005028Y004829D03*
X004674Y004258D03*
X003828Y003983D03*
X004241Y003490D03*
X004576Y003097D03*
X003532Y003333D03*
X003060Y003333D03*
X002509Y003176D03*
X003020Y002664D03*
X003532Y002506D03*
X004359Y002467D03*
X005048Y002014D03*
X005520Y001719D03*
X005678Y002014D03*
X004891Y001601D03*
X005324Y001404D03*
X004202Y001404D03*
X006643Y002093D03*
X007095Y001935D03*
X007391Y002034D03*
X007666Y001837D03*
X007706Y001522D03*
X007253Y001365D03*
X007076Y002368D03*
X007922Y002565D03*
X003788Y004494D03*
X003276Y004829D03*
X002627Y005085D03*
X001977Y005006D03*
D25*
X001757Y004973D02*
X001624Y004973D01*
X001624Y004894D02*
X001778Y004894D01*
X001757Y004915D02*
X001886Y004786D01*
X001977Y004786D01*
X001962Y004782D01*
X001931Y004764D01*
X001905Y004738D01*
X001886Y004706D01*
X001877Y004670D01*
X001877Y004563D01*
X002125Y004563D01*
X002125Y004544D01*
X001877Y004544D01*
X001877Y004437D01*
X001822Y004492D01*
X001733Y004492D01*
X001733Y004576D01*
X001646Y004664D01*
X001576Y004734D01*
X001576Y004798D01*
X001624Y004847D01*
X001624Y005126D01*
X001587Y005164D01*
X001624Y005201D01*
X001624Y005481D01*
X001566Y005539D01*
X001508Y005539D01*
X001493Y005553D01*
X001457Y005590D01*
X001454Y005590D01*
X001453Y005591D01*
X001401Y005590D01*
X001093Y005590D01*
X001093Y005658D01*
X001034Y005716D01*
X000637Y005716D01*
X000578Y005658D01*
X000578Y005260D01*
X000637Y005202D01*
X001034Y005202D01*
X001093Y005260D01*
X001093Y005330D01*
X001188Y005330D01*
X001188Y005201D01*
X001226Y005164D01*
X001188Y005126D01*
X001188Y004847D01*
X001247Y004788D01*
X001276Y004788D01*
X001276Y004609D01*
X001364Y004522D01*
X001393Y004492D01*
X001326Y004492D01*
X001267Y004433D01*
X001267Y003925D01*
X001326Y003867D01*
X001822Y003867D01*
X001880Y003925D01*
X001880Y004029D01*
X001946Y004029D01*
X001975Y004001D01*
X001985Y004001D01*
X001985Y003778D01*
X001837Y003778D01*
X001779Y003719D01*
X001779Y003420D01*
X001837Y003361D01*
X002383Y003361D01*
X002289Y003267D01*
X002289Y003084D01*
X002344Y003029D01*
X001837Y003029D01*
X001779Y002971D01*
X001779Y002672D01*
X001837Y002613D01*
X002393Y002613D01*
X002451Y002672D01*
X002451Y002956D01*
X002545Y002956D01*
X002800Y002700D01*
X002800Y002573D01*
X002929Y002444D01*
X003112Y002444D01*
X003240Y002573D01*
X003240Y002755D01*
X003226Y002770D01*
X003732Y002770D01*
X003820Y002857D01*
X004233Y003270D01*
X004332Y003270D01*
X004402Y003340D01*
X004703Y003340D01*
X004703Y003292D01*
X004703Y003280D01*
X004667Y003317D01*
X004484Y003317D01*
X004356Y003188D01*
X004356Y003006D01*
X004390Y002971D01*
X004128Y002971D01*
X004117Y002960D01*
X003752Y002595D01*
X003752Y002597D01*
X003623Y002726D01*
X003441Y002726D01*
X003312Y002597D01*
X003312Y002569D01*
X003304Y002560D01*
X003264Y002521D01*
X003264Y002521D01*
X003085Y002341D01*
X002861Y002341D01*
X002826Y002351D01*
X002809Y002341D01*
X002789Y002341D01*
X002779Y002331D01*
X002546Y002331D01*
X002487Y002272D01*
X002487Y001992D01*
X002525Y001955D01*
X002487Y001918D01*
X002487Y001810D01*
X002372Y001810D01*
X002372Y001859D01*
X002314Y001917D01*
X001916Y001917D01*
X001857Y001859D01*
X001857Y001461D01*
X001916Y001402D01*
X002314Y001402D01*
X002372Y001461D01*
X002372Y001550D01*
X002652Y001550D01*
X002652Y001549D01*
X002706Y001550D01*
X002760Y001550D01*
X002790Y001579D01*
X002865Y001579D01*
X002924Y001638D01*
X002924Y001918D01*
X002886Y001955D01*
X002924Y001992D01*
X002924Y002081D01*
X003192Y002081D01*
X003255Y002144D01*
X003255Y001520D01*
X003314Y001461D01*
X003672Y001461D01*
X003705Y001494D01*
X003716Y001475D01*
X003742Y001449D01*
X003774Y001431D01*
X003809Y001421D01*
X003936Y001421D01*
X003936Y001867D01*
X003994Y001867D01*
X003994Y001508D01*
X003982Y001495D01*
X003982Y001313D01*
X004110Y001184D01*
X004293Y001184D01*
X004383Y001274D01*
X004807Y001274D01*
X004859Y001327D01*
X004883Y001350D01*
X004913Y001381D01*
X004982Y001381D01*
X005111Y001510D01*
X005111Y001692D01*
X005008Y001794D01*
X005139Y001794D01*
X005154Y001809D01*
X005154Y001546D01*
X005104Y001495D01*
X005104Y001313D01*
X005232Y001184D01*
X005415Y001184D01*
X005544Y001313D01*
X005544Y001495D01*
X005540Y001499D01*
X005612Y001499D01*
X005740Y001628D01*
X005740Y001794D01*
X005769Y001794D01*
X005820Y001845D01*
X006355Y001311D01*
X006355Y001311D01*
X006426Y001239D01*
X006431Y001235D01*
X007072Y001235D01*
X007162Y001145D01*
X007344Y001145D01*
X007473Y001273D01*
X007473Y001451D01*
X007486Y001451D01*
X007486Y001431D01*
X007614Y001302D01*
X007797Y001302D01*
X007926Y001431D01*
X007926Y001613D01*
X007839Y001699D01*
X007886Y001746D01*
X007886Y001928D01*
X007757Y002057D01*
X007611Y002057D01*
X007611Y002125D01*
X007541Y002195D01*
X007541Y002640D01*
X007611Y002710D01*
X007611Y002888D01*
X007729Y003006D01*
X007729Y003188D01*
X007600Y003317D01*
X007551Y003317D01*
X007551Y003444D01*
X007423Y003573D01*
X007243Y003573D01*
X007234Y003606D01*
X007221Y003629D01*
X007225Y003633D01*
X007288Y003696D01*
X007358Y003625D01*
X007541Y003625D01*
X007670Y003754D01*
X007670Y003936D01*
X007584Y004022D01*
X007670Y004108D01*
X007670Y004290D01*
X007541Y004419D01*
X007414Y004419D01*
X007414Y004487D01*
X007285Y004616D01*
X007103Y004616D01*
X006974Y004487D01*
X006974Y004360D01*
X006856Y004242D01*
X006823Y004242D01*
X006823Y004563D01*
X006765Y004622D01*
X006738Y004622D01*
X006733Y004627D01*
X006733Y004648D01*
X006911Y004648D01*
X007001Y004738D01*
X007054Y004738D01*
X007054Y004709D01*
X007113Y004650D01*
X007393Y004650D01*
X007402Y004659D01*
X007401Y004659D01*
X007402Y004659D02*
X007423Y004638D01*
X007455Y004620D01*
X007490Y004610D01*
X007598Y004610D01*
X007598Y004859D01*
X007616Y004859D01*
X007616Y004610D01*
X007724Y004610D01*
X007760Y004620D01*
X007791Y004638D01*
X007818Y004664D01*
X007836Y004696D01*
X007845Y004732D01*
X007845Y004859D01*
X007616Y004859D01*
X007616Y004878D01*
X007598Y004878D01*
X007598Y005127D01*
X007490Y005127D01*
X007455Y005117D01*
X007423Y005099D01*
X007402Y005078D01*
X007393Y005087D01*
X007113Y005087D01*
X007054Y005028D01*
X007054Y004998D01*
X007001Y004998D01*
X006926Y005073D01*
X007051Y005073D01*
X007102Y005124D01*
X007215Y005238D01*
X007316Y005238D01*
X007427Y005283D01*
X007507Y005363D01*
X007587Y005283D01*
X007697Y005238D01*
X007816Y005238D01*
X007927Y005283D01*
X008007Y005363D01*
X008087Y005283D01*
X008197Y005238D01*
X008316Y005238D01*
X008427Y005283D01*
X008510Y005367D01*
X008510Y004484D01*
X008427Y004568D01*
X008316Y004613D01*
X008197Y004613D01*
X008087Y004568D01*
X008002Y004483D01*
X007957Y004373D01*
X007957Y004359D01*
X007950Y004351D01*
X007792Y004194D01*
X007792Y003750D01*
X007702Y003660D01*
X007702Y003478D01*
X007831Y003349D01*
X007957Y003349D01*
X007957Y003254D01*
X007962Y003242D01*
X007792Y003072D01*
X007792Y002746D01*
X007702Y002656D01*
X007702Y002474D01*
X007831Y002345D01*
X007957Y002345D01*
X007957Y002254D01*
X008002Y002143D01*
X008082Y002063D01*
X008002Y001983D01*
X007957Y001873D01*
X007957Y001754D01*
X007886Y001754D01*
X007957Y001754D02*
X008002Y001643D01*
X008082Y001563D01*
X008002Y001483D01*
X007957Y001373D01*
X007957Y001254D01*
X008002Y001143D01*
X008082Y001063D01*
X008002Y000983D01*
X007957Y000873D01*
X007957Y000754D01*
X008002Y000643D01*
X008086Y000560D01*
X007716Y000560D01*
X007753Y000597D01*
X007790Y000652D01*
X007816Y000714D01*
X007829Y000780D01*
X007829Y000803D01*
X007499Y000803D01*
X007499Y000823D01*
X007829Y000823D01*
X007829Y000847D01*
X007816Y000913D01*
X007790Y000974D01*
X007753Y001030D01*
X007706Y001077D01*
X007650Y001115D01*
X007588Y001140D01*
X007522Y001153D01*
X007499Y001153D01*
X007499Y000823D01*
X007479Y000823D01*
X007479Y001153D01*
X007455Y001153D01*
X007390Y001140D01*
X007328Y001115D01*
X007272Y001077D01*
X007225Y001030D01*
X007214Y001013D01*
X007159Y001068D01*
X007049Y001113D01*
X006929Y001113D01*
X006819Y001068D01*
X006739Y000988D01*
X006659Y001068D01*
X006549Y001113D01*
X006429Y001113D01*
X006319Y001068D01*
X006239Y000988D01*
X006159Y001068D01*
X006049Y001113D01*
X005929Y001113D01*
X005819Y001068D01*
X005739Y000988D01*
X005659Y001068D01*
X005549Y001113D01*
X005429Y001113D01*
X005319Y001068D01*
X005239Y000988D01*
X005159Y001068D01*
X005049Y001113D01*
X004929Y001113D01*
X004819Y001068D01*
X004739Y000988D01*
X004659Y001068D01*
X004549Y001113D01*
X004429Y001113D01*
X004319Y001068D01*
X004239Y000988D01*
X004159Y001068D01*
X004049Y001113D01*
X003929Y001113D01*
X003819Y001068D01*
X003739Y000988D01*
X003659Y001068D01*
X003549Y001113D01*
X003429Y001113D01*
X003319Y001068D01*
X003239Y000988D01*
X003159Y001068D01*
X003049Y001113D01*
X002929Y001113D01*
X002819Y001068D01*
X002739Y000988D01*
X002659Y001068D01*
X002549Y001113D01*
X002429Y001113D01*
X002319Y001068D01*
X002235Y000983D01*
X002189Y000873D01*
X002189Y000754D01*
X002235Y000643D01*
X002318Y000560D01*
X001509Y000560D01*
X001546Y000597D01*
X001584Y000652D01*
X001609Y000714D01*
X001622Y000780D01*
X001622Y000803D01*
X001292Y000803D01*
X001292Y000823D01*
X001622Y000823D01*
X001622Y000847D01*
X001609Y000913D01*
X001584Y000974D01*
X001546Y001030D01*
X001499Y001077D01*
X001443Y001115D01*
X001381Y001140D01*
X001316Y001153D01*
X001292Y001153D01*
X001292Y000823D01*
X001272Y000823D01*
X001272Y001153D01*
X001249Y001153D01*
X001183Y001140D01*
X001121Y001115D01*
X001066Y001077D01*
X001018Y001030D01*
X001007Y001013D01*
X000956Y001064D01*
X000956Y001505D01*
X001034Y001505D01*
X001093Y001563D01*
X001093Y002071D01*
X001034Y002130D01*
X001029Y002130D01*
X001127Y002228D01*
X001232Y002333D01*
X001232Y002613D01*
X001369Y002613D01*
X001428Y002672D01*
X001428Y002971D01*
X001418Y002980D01*
X001440Y003001D01*
X001458Y003033D01*
X001468Y003069D01*
X001468Y003181D01*
X001105Y003181D01*
X001105Y003209D01*
X001468Y003209D01*
X001468Y003322D01*
X001458Y003358D01*
X001440Y003389D01*
X001418Y003411D01*
X001428Y003420D01*
X001428Y003719D01*
X001369Y003778D01*
X000814Y003778D01*
X000785Y003749D01*
X000662Y003749D01*
X000557Y003644D01*
X000544Y003631D01*
X000523Y003609D01*
X000523Y005791D01*
X001836Y005791D01*
X001752Y005708D01*
X001707Y005597D01*
X001707Y005478D01*
X001752Y005368D01*
X001837Y005283D01*
X001947Y005238D01*
X002066Y005238D01*
X002177Y005283D01*
X002257Y005363D01*
X002337Y005283D01*
X002357Y005275D01*
X002219Y005136D01*
X002158Y005136D01*
X002068Y005226D01*
X001886Y005226D01*
X001757Y005097D01*
X001757Y004915D01*
X001857Y004816D02*
X001593Y004816D01*
X001576Y004737D02*
X001904Y004737D01*
X001877Y004659D02*
X001651Y004659D01*
X001730Y004580D02*
X001877Y004580D01*
X001877Y004502D02*
X001733Y004502D01*
X001384Y004502D02*
X001180Y004502D01*
X001177Y004504D02*
X001145Y004523D01*
X001110Y004532D01*
X000925Y004532D01*
X000925Y004219D01*
X001231Y004219D01*
X001231Y004411D01*
X001222Y004446D01*
X001203Y004478D01*
X001177Y004504D01*
X001079Y004599D02*
X001105Y004625D01*
X001123Y004657D01*
X001133Y004693D01*
X001133Y004830D01*
X000874Y004830D01*
X000874Y004907D01*
X000797Y004907D01*
X000797Y005166D01*
X000660Y005166D01*
X000624Y005156D01*
X000592Y005138D01*
X000566Y005112D01*
X000547Y005080D01*
X000538Y005044D01*
X000538Y004907D01*
X000797Y004907D01*
X000797Y004830D01*
X000538Y004830D01*
X000538Y004693D01*
X000547Y004657D01*
X000566Y004625D01*
X000592Y004599D01*
X000624Y004581D01*
X000660Y004571D01*
X000797Y004571D01*
X000797Y004830D01*
X000874Y004830D01*
X000874Y004571D01*
X001011Y004571D01*
X001047Y004581D01*
X001079Y004599D01*
X001046Y004580D02*
X001305Y004580D01*
X001276Y004659D02*
X001124Y004659D01*
X001133Y004737D02*
X001276Y004737D01*
X001219Y004816D02*
X001133Y004816D01*
X001133Y004907D02*
X001133Y005044D01*
X001123Y005080D01*
X001105Y005112D01*
X001079Y005138D01*
X001047Y005156D01*
X001011Y005166D01*
X000874Y005166D01*
X000874Y004907D01*
X001133Y004907D01*
X001188Y004894D02*
X000874Y004894D01*
X000797Y004894D02*
X000523Y004894D01*
X000523Y004816D02*
X000538Y004816D01*
X000538Y004737D02*
X000523Y004737D01*
X000523Y004659D02*
X000547Y004659D01*
X000523Y004580D02*
X000625Y004580D01*
X000624Y004523D02*
X000592Y004504D01*
X000566Y004478D01*
X000548Y004446D01*
X000538Y004411D01*
X000538Y004219D01*
X000845Y004219D01*
X000845Y004139D01*
X000925Y004139D01*
X000925Y004219D01*
X000845Y004219D01*
X000845Y004532D01*
X000660Y004532D01*
X000624Y004523D01*
X000590Y004502D02*
X000523Y004502D01*
X000523Y004423D02*
X000541Y004423D01*
X000538Y004345D02*
X000523Y004345D01*
X000523Y004266D02*
X000538Y004266D01*
X000523Y004188D02*
X000845Y004188D01*
X000845Y004139D02*
X000538Y004139D01*
X000538Y003948D01*
X000548Y003913D01*
X000566Y003881D01*
X000592Y003855D01*
X000624Y003836D01*
X000660Y003827D01*
X000845Y003827D01*
X000845Y004139D01*
X000845Y004109D02*
X000925Y004109D01*
X000925Y004139D02*
X000925Y003827D01*
X001110Y003827D01*
X001145Y003836D01*
X001177Y003855D01*
X001203Y003881D01*
X001222Y003913D01*
X001231Y003948D01*
X001231Y004139D01*
X000925Y004139D01*
X000925Y004188D02*
X001267Y004188D01*
X001267Y004109D02*
X001231Y004109D01*
X001231Y004031D02*
X001267Y004031D01*
X001267Y003952D02*
X001231Y003952D01*
X001196Y003874D02*
X001319Y003874D01*
X001428Y003717D02*
X001779Y003717D01*
X001779Y003638D02*
X001428Y003638D01*
X001428Y003560D02*
X001779Y003560D01*
X001779Y003481D02*
X001428Y003481D01*
X001426Y003403D02*
X001796Y003403D01*
X001467Y003324D02*
X002346Y003324D01*
X002289Y003246D02*
X001468Y003246D01*
X001468Y003167D02*
X002289Y003167D01*
X002289Y003089D02*
X001468Y003089D01*
X001445Y003010D02*
X001818Y003010D01*
X001779Y002932D02*
X001428Y002932D01*
X001428Y002853D02*
X001779Y002853D01*
X001779Y002775D02*
X001428Y002775D01*
X001428Y002696D02*
X001779Y002696D01*
X001833Y002618D02*
X001374Y002618D01*
X001232Y002539D02*
X001907Y002539D01*
X001903Y002538D02*
X001872Y002520D01*
X001845Y002494D01*
X001827Y002462D01*
X001817Y002426D01*
X001817Y002289D01*
X002076Y002289D01*
X002076Y002212D01*
X001817Y002212D01*
X001817Y002074D01*
X001827Y002039D01*
X001845Y002007D01*
X001872Y001981D01*
X001903Y001962D01*
X001939Y001953D01*
X002076Y001953D01*
X002076Y002212D01*
X002154Y002212D01*
X002154Y002289D01*
X002412Y002289D01*
X002412Y002426D01*
X002403Y002462D01*
X002384Y002494D01*
X002358Y002520D01*
X002326Y002538D01*
X002291Y002548D01*
X002154Y002548D01*
X002154Y002289D01*
X002076Y002289D01*
X002076Y002548D01*
X001939Y002548D01*
X001903Y002538D01*
X001827Y002461D02*
X001232Y002461D01*
X001232Y002382D02*
X001817Y002382D01*
X001817Y002304D02*
X001202Y002304D01*
X001124Y002225D02*
X002076Y002225D01*
X002154Y002225D02*
X002487Y002225D01*
X002412Y002212D02*
X002154Y002212D01*
X002154Y001953D01*
X002291Y001953D01*
X002326Y001962D01*
X002358Y001981D01*
X002384Y002007D01*
X002403Y002039D01*
X002412Y002074D01*
X002412Y002212D01*
X002412Y002147D02*
X002487Y002147D01*
X002487Y002068D02*
X002411Y002068D01*
X002367Y001990D02*
X002490Y001990D01*
X002487Y001911D02*
X002320Y001911D01*
X002372Y001833D02*
X002487Y001833D01*
X002154Y001990D02*
X002076Y001990D01*
X002076Y002068D02*
X002154Y002068D01*
X002154Y002147D02*
X002076Y002147D01*
X002076Y002304D02*
X002154Y002304D01*
X002154Y002382D02*
X002076Y002382D01*
X002076Y002461D02*
X002154Y002461D01*
X002154Y002539D02*
X002076Y002539D01*
X002323Y002539D02*
X002834Y002539D01*
X002912Y002461D02*
X002403Y002461D01*
X002412Y002382D02*
X003126Y002382D01*
X003129Y002461D02*
X003204Y002461D01*
X003207Y002539D02*
X003283Y002539D01*
X003240Y002618D02*
X003333Y002618D01*
X003411Y002696D02*
X003240Y002696D01*
X003654Y002696D02*
X003853Y002696D01*
X003775Y002618D02*
X003732Y002618D01*
X003737Y002775D02*
X003932Y002775D01*
X004010Y002853D02*
X003816Y002853D01*
X003894Y002932D02*
X004089Y002932D01*
X003973Y003010D02*
X004356Y003010D01*
X004356Y003089D02*
X004051Y003089D01*
X004130Y003167D02*
X004356Y003167D01*
X004413Y003246D02*
X004208Y003246D01*
X004386Y003324D02*
X004703Y003324D01*
X004703Y003292D02*
X005003Y003292D01*
X004703Y003292D01*
X005003Y003292D02*
X005003Y003292D01*
X004703Y003640D02*
X004402Y003640D01*
X004332Y003710D01*
X004150Y003710D01*
X004021Y003582D01*
X004021Y003483D01*
X003608Y003070D01*
X003142Y003070D01*
X003098Y003113D01*
X003151Y003113D01*
X003280Y003242D01*
X003280Y003424D01*
X003195Y003509D01*
X003219Y003509D01*
X003278Y003567D01*
X003278Y003668D01*
X003279Y003669D01*
X003279Y003785D01*
X003278Y003785D01*
X003278Y003886D01*
X003269Y003896D01*
X003269Y003968D01*
X003636Y004336D01*
X003697Y004274D01*
X003879Y004274D01*
X004008Y004403D01*
X004008Y004531D01*
X004089Y004611D01*
X004204Y004611D01*
X004262Y004670D01*
X004262Y004989D01*
X004204Y005047D01*
X003924Y005047D01*
X003887Y005010D01*
X003849Y005047D01*
X003570Y005047D01*
X003511Y004989D01*
X003511Y004959D01*
X003458Y004959D01*
X003368Y005049D01*
X003315Y005049D01*
X003503Y005238D01*
X003566Y005238D01*
X003677Y005283D01*
X003731Y005338D01*
X003743Y005321D01*
X003790Y005274D01*
X003846Y005236D01*
X003908Y005211D01*
X003973Y005198D01*
X003997Y005198D01*
X003997Y005528D01*
X004017Y005528D01*
X004017Y005548D01*
X004497Y005548D01*
X004497Y005528D01*
X004517Y005528D01*
X004517Y005548D01*
X004847Y005548D01*
X004847Y005571D01*
X004834Y005637D01*
X004808Y005699D01*
X004771Y005754D01*
X004734Y005791D01*
X005086Y005791D01*
X005002Y005708D01*
X004957Y005597D01*
X004957Y005478D01*
X005002Y005368D01*
X005087Y005283D01*
X005197Y005238D01*
X005316Y005238D01*
X005427Y005283D01*
X005507Y005363D01*
X005587Y005283D01*
X005697Y005238D01*
X005755Y005238D01*
X006001Y004992D01*
X006001Y004951D01*
X005898Y004951D01*
X005898Y005058D01*
X005769Y005187D01*
X005642Y005187D01*
X005614Y005215D01*
X005230Y005215D01*
X005064Y005049D01*
X004937Y005049D01*
X004808Y004920D01*
X004808Y004738D01*
X004902Y004644D01*
X004482Y004644D01*
X004447Y004609D01*
X003980Y004142D01*
X003919Y004203D01*
X003736Y004203D01*
X003608Y004074D01*
X003608Y003891D01*
X003736Y003763D01*
X003778Y003763D01*
X003568Y003553D01*
X003441Y003553D01*
X003312Y003424D01*
X003312Y003242D01*
X003441Y003113D01*
X003623Y003113D01*
X003752Y003242D01*
X003752Y003369D01*
X004137Y003754D01*
X004703Y003754D01*
X004703Y003692D01*
X004703Y003640D01*
X004703Y003692D02*
X005003Y003692D01*
X005003Y003692D01*
X004703Y003692D01*
X004703Y003717D02*
X004100Y003717D01*
X004077Y003638D02*
X004021Y003638D01*
X004021Y003560D02*
X003943Y003560D01*
X004019Y003481D02*
X003864Y003481D01*
X003941Y003403D02*
X003786Y003403D01*
X003752Y003324D02*
X003862Y003324D01*
X003784Y003246D02*
X003752Y003246D01*
X003705Y003167D02*
X003678Y003167D01*
X003627Y003089D02*
X003123Y003089D01*
X003205Y003167D02*
X003387Y003167D01*
X003312Y003246D02*
X003280Y003246D01*
X003280Y003324D02*
X003312Y003324D01*
X003312Y003403D02*
X003280Y003403D01*
X003223Y003481D02*
X003369Y003481D01*
X003270Y003560D02*
X003575Y003560D01*
X003654Y003638D02*
X003278Y003638D01*
X003279Y003717D02*
X003732Y003717D01*
X003704Y003795D02*
X003278Y003795D01*
X003278Y003874D02*
X003625Y003874D01*
X003608Y003952D02*
X003269Y003952D01*
X003331Y004031D02*
X003608Y004031D01*
X003643Y004109D02*
X003410Y004109D01*
X003488Y004188D02*
X003721Y004188D01*
X003567Y004266D02*
X004104Y004266D01*
X004183Y004345D02*
X003950Y004345D01*
X004008Y004423D02*
X004261Y004423D01*
X004340Y004502D02*
X004008Y004502D01*
X004058Y004580D02*
X004418Y004580D01*
X004251Y004659D02*
X004888Y004659D01*
X004809Y004737D02*
X004262Y004737D01*
X004262Y004816D02*
X004808Y004816D01*
X004808Y004894D02*
X004262Y004894D01*
X004262Y004973D02*
X004861Y004973D01*
X005067Y005051D02*
X003317Y005051D01*
X003395Y005130D02*
X005145Y005130D01*
X005224Y005208D02*
X004592Y005208D01*
X004606Y005211D02*
X004668Y005236D01*
X004723Y005274D01*
X004771Y005321D01*
X004808Y005377D01*
X004834Y005439D01*
X004847Y005504D01*
X004847Y005528D01*
X004517Y005528D01*
X004517Y005198D01*
X004540Y005198D01*
X004606Y005211D01*
X004517Y005208D02*
X004497Y005208D01*
X004497Y005198D02*
X004497Y005528D01*
X004167Y005528D01*
X004017Y005528D01*
X004017Y005198D01*
X004040Y005198D01*
X004106Y005211D01*
X004168Y005236D01*
X004223Y005274D01*
X004257Y005307D01*
X004290Y005274D01*
X004346Y005236D01*
X004408Y005211D01*
X004473Y005198D01*
X004497Y005198D01*
X004421Y005208D02*
X004092Y005208D01*
X004017Y005208D02*
X003997Y005208D01*
X003921Y005208D02*
X003474Y005208D01*
X003680Y005287D02*
X003777Y005287D01*
X003997Y005287D02*
X004017Y005287D01*
X004017Y005365D02*
X003997Y005365D01*
X003997Y005444D02*
X004017Y005444D01*
X004017Y005522D02*
X003997Y005522D01*
X004236Y005287D02*
X004277Y005287D01*
X004497Y005287D02*
X004517Y005287D01*
X004517Y005365D02*
X004497Y005365D01*
X004497Y005444D02*
X004517Y005444D01*
X004517Y005522D02*
X004497Y005522D01*
X004736Y005287D02*
X005084Y005287D01*
X005005Y005365D02*
X004800Y005365D01*
X004835Y005444D02*
X004971Y005444D01*
X004957Y005522D02*
X004847Y005522D01*
X004841Y005601D02*
X004958Y005601D01*
X004991Y005679D02*
X004816Y005679D01*
X004768Y005758D02*
X005052Y005758D01*
X005430Y005287D02*
X005584Y005287D01*
X005621Y005208D02*
X005784Y005208D01*
X005826Y005130D02*
X005863Y005130D01*
X005898Y005051D02*
X005941Y005051D01*
X005898Y004973D02*
X006001Y004973D01*
X006807Y004580D02*
X007067Y004580D01*
X007105Y004659D02*
X006921Y004659D01*
X007000Y004737D02*
X007054Y004737D01*
X007321Y004580D02*
X008117Y004580D01*
X008021Y004502D02*
X007399Y004502D01*
X007414Y004423D02*
X007977Y004423D01*
X007943Y004345D02*
X007615Y004345D01*
X007670Y004266D02*
X007864Y004266D01*
X007792Y004188D02*
X007670Y004188D01*
X007670Y004109D02*
X007792Y004109D01*
X007792Y004031D02*
X007592Y004031D01*
X007653Y003952D02*
X007792Y003952D01*
X007792Y003874D02*
X007670Y003874D01*
X007670Y003795D02*
X007792Y003795D01*
X007758Y003717D02*
X007633Y003717D01*
X007702Y003638D02*
X007554Y003638D01*
X007436Y003560D02*
X007702Y003560D01*
X007702Y003481D02*
X007514Y003481D01*
X007551Y003403D02*
X007778Y003403D01*
X007957Y003324D02*
X007551Y003324D01*
X007671Y003246D02*
X007960Y003246D01*
X007887Y003167D02*
X007729Y003167D01*
X007729Y003089D02*
X007809Y003089D01*
X007792Y003010D02*
X007729Y003010D01*
X007792Y002932D02*
X007655Y002932D01*
X007611Y002853D02*
X007792Y002853D01*
X007792Y002775D02*
X007611Y002775D01*
X007596Y002696D02*
X007742Y002696D01*
X007702Y002618D02*
X007541Y002618D01*
X007541Y002539D02*
X007702Y002539D01*
X007716Y002461D02*
X007541Y002461D01*
X007541Y002382D02*
X007794Y002382D01*
X007957Y002304D02*
X007541Y002304D01*
X007541Y002225D02*
X007969Y002225D01*
X008001Y002147D02*
X007589Y002147D01*
X007611Y002068D02*
X008078Y002068D01*
X008009Y001990D02*
X007825Y001990D01*
X007886Y001911D02*
X007972Y001911D01*
X007957Y001833D02*
X007886Y001833D01*
X007863Y001676D02*
X007989Y001676D01*
X008049Y001597D02*
X007926Y001597D01*
X007926Y001519D02*
X008038Y001519D01*
X007985Y001440D02*
X007926Y001440D01*
X007957Y001362D02*
X007856Y001362D01*
X007957Y001283D02*
X007473Y001283D01*
X007473Y001362D02*
X007555Y001362D01*
X007486Y001440D02*
X007473Y001440D01*
X007404Y001205D02*
X007977Y001205D01*
X008020Y001126D02*
X007622Y001126D01*
X007736Y001048D02*
X008067Y001048D01*
X007997Y000969D02*
X007792Y000969D01*
X007820Y000891D02*
X007964Y000891D01*
X007957Y000812D02*
X007499Y000812D01*
X007499Y000891D02*
X007479Y000891D01*
X007479Y000969D02*
X007499Y000969D01*
X007499Y001048D02*
X007479Y001048D01*
X007479Y001126D02*
X007499Y001126D01*
X007356Y001126D02*
X001416Y001126D01*
X001529Y001048D02*
X002299Y001048D01*
X002229Y000969D02*
X001586Y000969D01*
X001614Y000891D02*
X002196Y000891D01*
X002189Y000812D02*
X001292Y000812D01*
X001292Y000891D02*
X001272Y000891D01*
X001272Y000969D02*
X001292Y000969D01*
X001292Y001048D02*
X001272Y001048D01*
X001272Y001126D02*
X001292Y001126D01*
X001149Y001126D02*
X000956Y001126D01*
X000956Y001205D02*
X004090Y001205D01*
X004011Y001283D02*
X000956Y001283D01*
X000956Y001362D02*
X003982Y001362D01*
X003982Y001440D02*
X003936Y001440D01*
X003936Y001519D02*
X003994Y001519D01*
X003994Y001597D02*
X003936Y001597D01*
X003936Y001676D02*
X003994Y001676D01*
X003994Y001754D02*
X003936Y001754D01*
X003936Y001833D02*
X003994Y001833D01*
X003994Y001925D02*
X003936Y001925D01*
X003936Y002371D01*
X003895Y002371D01*
X003973Y002448D01*
X003973Y002442D01*
X003973Y002334D01*
X003994Y002313D01*
X003994Y001925D01*
X003994Y001990D02*
X003936Y001990D01*
X003936Y002068D02*
X003994Y002068D01*
X003994Y002147D02*
X003936Y002147D01*
X003936Y002225D02*
X003994Y002225D01*
X003994Y002304D02*
X003936Y002304D01*
X003907Y002382D02*
X003973Y002382D01*
X003255Y002068D02*
X002924Y002068D01*
X002921Y001990D02*
X003255Y001990D01*
X003255Y001911D02*
X002924Y001911D01*
X002924Y001833D02*
X003255Y001833D01*
X003255Y001754D02*
X002924Y001754D01*
X002924Y001676D02*
X003255Y001676D01*
X003255Y001597D02*
X002883Y001597D01*
X002760Y001550D02*
X002760Y001550D01*
X002760Y001550D01*
X002372Y001519D02*
X003256Y001519D01*
X003758Y001440D02*
X002352Y001440D01*
X001878Y001440D02*
X000956Y001440D01*
X001048Y001519D02*
X001157Y001519D01*
X001156Y001519D02*
X001183Y001493D01*
X001214Y001474D01*
X001250Y001465D01*
X001435Y001465D01*
X001435Y001777D01*
X001515Y001777D01*
X001515Y001465D01*
X001700Y001465D01*
X001736Y001474D01*
X001768Y001493D01*
X001794Y001519D01*
X001812Y001551D01*
X001822Y001586D01*
X001822Y001777D01*
X001515Y001777D01*
X001515Y001857D01*
X001822Y001857D01*
X001822Y002048D01*
X001812Y002084D01*
X001794Y002116D01*
X001768Y002142D01*
X001736Y002160D01*
X001700Y002170D01*
X001515Y002170D01*
X001515Y001857D01*
X001435Y001857D01*
X001435Y001777D01*
X001129Y001777D01*
X001129Y001586D01*
X001138Y001551D01*
X001156Y001519D01*
X001129Y001597D02*
X001093Y001597D01*
X001093Y001676D02*
X001129Y001676D01*
X001129Y001754D02*
X001093Y001754D01*
X001093Y001833D02*
X001435Y001833D01*
X001435Y001857D02*
X001129Y001857D01*
X001129Y002048D01*
X001138Y002084D01*
X001156Y002116D01*
X001183Y002142D01*
X001214Y002160D01*
X001250Y002170D01*
X001435Y002170D01*
X001435Y001857D01*
X001435Y001911D02*
X001515Y001911D01*
X001515Y001833D02*
X001857Y001833D01*
X001822Y001911D02*
X001910Y001911D01*
X001863Y001990D02*
X001822Y001990D01*
X001817Y002068D02*
X001819Y002068D01*
X001817Y002147D02*
X001760Y002147D01*
X001515Y002147D02*
X001435Y002147D01*
X001435Y002068D02*
X001515Y002068D01*
X001515Y001990D02*
X001435Y001990D01*
X001191Y002147D02*
X001045Y002147D01*
X001093Y002068D02*
X001134Y002068D01*
X001129Y001990D02*
X001093Y001990D01*
X001093Y001911D02*
X001129Y001911D01*
X001435Y001754D02*
X001515Y001754D01*
X001515Y001676D02*
X001435Y001676D01*
X001435Y001597D02*
X001515Y001597D01*
X001515Y001519D02*
X001435Y001519D01*
X001794Y001519D02*
X001857Y001519D01*
X001857Y001597D02*
X001822Y001597D01*
X001822Y001676D02*
X001857Y001676D01*
X001857Y001754D02*
X001822Y001754D01*
X002412Y002304D02*
X002519Y002304D01*
X002397Y002618D02*
X002800Y002618D01*
X002800Y002696D02*
X002451Y002696D01*
X002451Y002775D02*
X002726Y002775D01*
X002647Y002853D02*
X002451Y002853D01*
X002451Y002932D02*
X002569Y002932D01*
X003080Y003727D02*
X003139Y003727D01*
X003934Y004188D02*
X004026Y004188D01*
X002792Y004849D02*
X002783Y004851D01*
X002656Y004851D01*
X002656Y004622D01*
X002637Y004622D01*
X002637Y004851D01*
X002510Y004851D01*
X002474Y004841D01*
X002442Y004823D01*
X002416Y004797D01*
X002398Y004765D01*
X002388Y004729D01*
X002388Y004687D01*
X002383Y004706D01*
X002365Y004738D01*
X002339Y004764D01*
X002307Y004782D01*
X002271Y004792D01*
X002144Y004792D01*
X002144Y004563D01*
X002125Y004563D01*
X002125Y004792D01*
X002074Y004792D01*
X002158Y004876D01*
X002219Y004876D01*
X002326Y004876D01*
X002425Y004975D01*
X002536Y004865D01*
X002718Y004865D01*
X002792Y004939D01*
X002792Y004849D01*
X002792Y004894D02*
X002747Y004894D01*
X002656Y004816D02*
X002637Y004816D01*
X002637Y004737D02*
X002656Y004737D01*
X002656Y004659D02*
X002637Y004659D01*
X002435Y004816D02*
X002098Y004816D01*
X002125Y004737D02*
X002144Y004737D01*
X002144Y004659D02*
X002125Y004659D01*
X002125Y004580D02*
X002144Y004580D01*
X002365Y004737D02*
X002390Y004737D01*
X002344Y004894D02*
X002506Y004894D01*
X002428Y004973D02*
X002423Y004973D01*
X002291Y005208D02*
X002086Y005208D01*
X002180Y005287D02*
X002334Y005287D01*
X001868Y005208D02*
X001624Y005208D01*
X001621Y005130D02*
X001789Y005130D01*
X001757Y005051D02*
X001624Y005051D01*
X001624Y005287D02*
X001834Y005287D01*
X001755Y005365D02*
X001624Y005365D01*
X001624Y005444D02*
X001721Y005444D01*
X001707Y005522D02*
X001583Y005522D01*
X001708Y005601D02*
X001093Y005601D01*
X001072Y005679D02*
X001741Y005679D01*
X001802Y005758D02*
X000523Y005758D01*
X000523Y005679D02*
X000599Y005679D01*
X000578Y005601D02*
X000523Y005601D01*
X000523Y005522D02*
X000578Y005522D01*
X000578Y005444D02*
X000523Y005444D01*
X000523Y005365D02*
X000578Y005365D01*
X000578Y005287D02*
X000523Y005287D01*
X000523Y005208D02*
X000630Y005208D01*
X000584Y005130D02*
X000523Y005130D01*
X000523Y005051D02*
X000540Y005051D01*
X000538Y004973D02*
X000523Y004973D01*
X000797Y004973D02*
X000874Y004973D01*
X000874Y005051D02*
X000797Y005051D01*
X000797Y005130D02*
X000874Y005130D01*
X001041Y005208D02*
X001188Y005208D01*
X001191Y005130D02*
X001087Y005130D01*
X001131Y005051D02*
X001188Y005051D01*
X001188Y004973D02*
X001133Y004973D01*
X000874Y004816D02*
X000797Y004816D01*
X000797Y004737D02*
X000874Y004737D01*
X000874Y004659D02*
X000797Y004659D01*
X000797Y004580D02*
X000874Y004580D01*
X000845Y004502D02*
X000925Y004502D01*
X000925Y004423D02*
X000845Y004423D01*
X000845Y004345D02*
X000925Y004345D01*
X000925Y004266D02*
X000845Y004266D01*
X000538Y004109D02*
X000523Y004109D01*
X000523Y004031D02*
X000538Y004031D01*
X000538Y003952D02*
X000523Y003952D01*
X000523Y003874D02*
X000573Y003874D01*
X000523Y003795D02*
X001985Y003795D01*
X001985Y003874D02*
X001829Y003874D01*
X001880Y003952D02*
X001985Y003952D01*
X001267Y004266D02*
X001231Y004266D01*
X001231Y004345D02*
X001267Y004345D01*
X001267Y004423D02*
X001228Y004423D01*
X000925Y004031D02*
X000845Y004031D01*
X000845Y003952D02*
X000925Y003952D01*
X000925Y003874D02*
X000845Y003874D01*
X000630Y003717D02*
X000523Y003717D01*
X000523Y003638D02*
X000551Y003638D01*
X003444Y004973D02*
X003511Y004973D01*
X005481Y004376D02*
X005483Y004362D01*
X005673Y004362D02*
X005678Y004376D01*
X005873Y004362D02*
X005875Y004376D01*
X006823Y004345D02*
X006958Y004345D01*
X006974Y004423D02*
X006823Y004423D01*
X006823Y004502D02*
X006988Y004502D01*
X006880Y004266D02*
X006823Y004266D01*
X007598Y004659D02*
X007616Y004659D01*
X007812Y004659D02*
X008510Y004659D01*
X008510Y004580D02*
X008396Y004580D01*
X008493Y004502D02*
X008510Y004502D01*
X008510Y004737D02*
X007845Y004737D01*
X007845Y004816D02*
X008510Y004816D01*
X008510Y004894D02*
X007845Y004894D01*
X007845Y004878D02*
X007845Y005005D01*
X007836Y005041D01*
X007818Y005073D01*
X007791Y005099D01*
X007760Y005117D01*
X007724Y005127D01*
X007616Y005127D01*
X007616Y004878D01*
X007845Y004878D01*
X007845Y004973D02*
X008510Y004973D01*
X008510Y005051D02*
X007830Y005051D01*
X007616Y005051D02*
X007598Y005051D01*
X007598Y004973D02*
X007616Y004973D01*
X007616Y004894D02*
X007598Y004894D01*
X007598Y004816D02*
X007616Y004816D01*
X007616Y004737D02*
X007598Y004737D01*
X007077Y005051D02*
X006948Y005051D01*
X007107Y005130D02*
X008510Y005130D01*
X008510Y005208D02*
X007186Y005208D01*
X007430Y005287D02*
X007584Y005287D01*
X007930Y005287D02*
X008084Y005287D01*
X008430Y005287D02*
X008510Y005287D01*
X008508Y005365D02*
X008510Y005365D01*
X007345Y003638D02*
X007230Y003638D01*
X006013Y003352D02*
X006013Y002682D01*
X005933Y002682D01*
X005933Y003352D01*
X006013Y003352D01*
X006013Y003324D02*
X005933Y003324D01*
X005933Y003246D02*
X006013Y003246D01*
X006013Y003167D02*
X005933Y003167D01*
X005933Y003089D02*
X006013Y003089D01*
X006013Y003010D02*
X005933Y003010D01*
X005933Y002932D02*
X006013Y002932D01*
X006013Y002853D02*
X005933Y002853D01*
X005933Y002775D02*
X006013Y002775D01*
X006013Y002696D02*
X005933Y002696D01*
X005833Y001833D02*
X005808Y001833D01*
X005740Y001754D02*
X005912Y001754D01*
X005990Y001676D02*
X005740Y001676D01*
X005710Y001597D02*
X006069Y001597D01*
X006147Y001519D02*
X005631Y001519D01*
X005544Y001440D02*
X006226Y001440D01*
X006304Y001362D02*
X005544Y001362D01*
X005514Y001283D02*
X006383Y001283D01*
X006299Y001048D02*
X006179Y001048D01*
X005799Y001048D02*
X005679Y001048D01*
X005435Y001205D02*
X007101Y001205D01*
X007179Y001048D02*
X007242Y001048D01*
X006799Y001048D02*
X006679Y001048D01*
X007733Y000577D02*
X008069Y000577D01*
X007998Y000655D02*
X007791Y000655D01*
X007820Y000734D02*
X007965Y000734D01*
X005299Y001048D02*
X005179Y001048D01*
X005212Y001205D02*
X004313Y001205D01*
X004299Y001048D02*
X004179Y001048D01*
X003799Y001048D02*
X003679Y001048D01*
X003299Y001048D02*
X003179Y001048D01*
X002799Y001048D02*
X002679Y001048D01*
X002197Y000734D02*
X001613Y000734D01*
X001585Y000655D02*
X002230Y000655D01*
X002301Y000577D02*
X001526Y000577D01*
X001036Y001048D02*
X000972Y001048D01*
X004679Y001048D02*
X004799Y001048D01*
X004816Y001283D02*
X005133Y001283D01*
X005104Y001362D02*
X004894Y001362D01*
X004883Y001350D02*
X004883Y001350D01*
X005041Y001440D02*
X005104Y001440D01*
X005111Y001519D02*
X005127Y001519D01*
X005111Y001597D02*
X005154Y001597D01*
X005154Y001676D02*
X005111Y001676D01*
X005154Y001754D02*
X005048Y001754D01*
X001188Y005287D02*
X001093Y005287D01*
D26*
X001129Y005240D02*
X001163Y005220D01*
X001406Y005341D02*
X001403Y005460D01*
X000863Y005460D01*
X000835Y005459D01*
X001977Y005006D02*
X002272Y005006D01*
X002489Y005223D01*
X002489Y005538D01*
X002507Y005538D01*
X002489Y005223D02*
X002489Y005223D01*
X002627Y005085D01*
X003276Y004829D02*
X003591Y004829D01*
X003631Y004829D01*
X003532Y004829D01*
X003709Y004829D01*
X003788Y004494D02*
X004064Y004770D01*
X004064Y004829D01*
X003788Y004494D02*
X003611Y004494D01*
X003139Y004022D01*
X003139Y003727D01*
X003080Y003727D02*
X003060Y003727D01*
X003060Y003333D01*
X003532Y003333D02*
X004083Y003884D01*
X004320Y003884D01*
X004989Y003884D01*
X005003Y003882D01*
X005003Y003692D02*
X004989Y003687D01*
X005540Y003687D01*
X005539Y003182D01*
X005540Y003294D01*
X005963Y003120D01*
X005973Y003392D01*
X006023Y003180D01*
X006083Y003496D01*
X006923Y003496D01*
X006943Y003492D01*
X006942Y003490D01*
X006938Y003490D01*
X006942Y003490D02*
X007095Y003490D01*
X007174Y003569D01*
X007548Y003569D01*
X007686Y003707D01*
X007686Y004455D01*
X007725Y004494D01*
X007725Y004809D01*
X007607Y004868D01*
X007253Y004868D02*
X007174Y004868D01*
X006820Y004868D01*
X006603Y005006D02*
X006800Y005203D01*
X006997Y005203D01*
X007233Y005439D01*
X007233Y005538D01*
X007257Y005538D01*
X006757Y005538D02*
X006741Y005538D01*
X006741Y005361D01*
X006465Y005085D01*
X006465Y004357D01*
X006463Y004362D01*
X006273Y004362D02*
X006268Y004357D01*
X006268Y005538D01*
X006257Y005538D01*
X005776Y005538D02*
X005776Y005400D01*
X006131Y005046D01*
X006131Y004573D01*
X006072Y004514D01*
X006072Y004357D01*
X006073Y004362D01*
X005875Y004376D02*
X005875Y004691D01*
X005914Y004731D01*
X005678Y004967D02*
X005678Y004967D01*
X005678Y004376D01*
X005481Y004376D02*
X005481Y004691D01*
X005442Y004731D01*
X005225Y004514D02*
X004536Y004514D01*
X004005Y003983D01*
X003828Y003983D01*
X004674Y004258D02*
X004812Y004258D01*
X004989Y004081D01*
X005003Y004082D01*
X005284Y004357D02*
X005283Y004362D01*
X005284Y004357D02*
X005265Y004416D01*
X005265Y004475D01*
X005225Y004514D01*
X005028Y004829D02*
X005284Y005085D01*
X005560Y005085D01*
X005678Y004967D01*
X005028Y004829D02*
X005028Y004829D01*
X005757Y005538D02*
X005776Y005538D01*
X006603Y005006D02*
X006603Y004573D01*
X006662Y004514D01*
X006662Y004376D01*
X006663Y004362D01*
X006879Y004081D02*
X006943Y004082D01*
X006879Y004081D02*
X007194Y004396D01*
X007410Y004199D02*
X007450Y004199D01*
X007410Y004199D02*
X007331Y004120D01*
X007115Y003904D01*
X006977Y003904D01*
X006957Y003884D01*
X006943Y003882D01*
X006957Y003884D02*
X006957Y003884D01*
X006943Y003692D02*
X006898Y003687D01*
X007095Y003687D01*
X007253Y003845D01*
X007450Y003845D01*
X007922Y003569D02*
X007922Y004140D01*
X008080Y004298D01*
X008257Y004298D01*
X008257Y004313D01*
X007332Y003353D02*
X007272Y003294D01*
X006977Y003294D01*
X006943Y003292D01*
X006938Y003097D02*
X006943Y003092D01*
X006938Y003097D02*
X007233Y003097D01*
X007312Y003097D01*
X007509Y003097D01*
X007922Y003018D02*
X008217Y003313D01*
X008257Y003313D01*
X008257Y003313D01*
X007922Y003018D02*
X007922Y002565D01*
X007076Y002368D02*
X006918Y002526D01*
X006918Y002683D01*
X006957Y002703D01*
X006943Y002702D01*
X006663Y002422D02*
X006643Y002408D01*
X006643Y002093D01*
X006426Y001994D02*
X006426Y002290D01*
X006465Y002309D01*
X006465Y002408D01*
X006463Y002422D01*
X006273Y002422D02*
X006268Y002408D01*
X006268Y001975D01*
X006308Y001935D01*
X006308Y001935D01*
X006524Y001719D01*
X007548Y001719D01*
X007666Y001837D01*
X007646Y001581D02*
X007706Y001522D01*
X007646Y001581D02*
X006465Y001581D01*
X006072Y001975D01*
X006072Y002408D01*
X006073Y002422D01*
X005894Y002408D02*
X005873Y002422D01*
X005894Y002408D02*
X005894Y001955D01*
X006485Y001365D01*
X007253Y001365D01*
X007017Y001857D02*
X006564Y001857D01*
X006426Y001994D01*
X007017Y001857D02*
X007095Y001935D01*
X005678Y002014D02*
X005678Y002408D01*
X005673Y002422D01*
X005483Y002422D02*
X005481Y002408D01*
X005481Y002349D01*
X005442Y002309D01*
X005442Y001798D01*
X005520Y001719D01*
X005284Y001443D02*
X005284Y002408D01*
X005283Y002422D01*
X005003Y002702D02*
X004989Y002703D01*
X004261Y002703D01*
X004103Y002546D01*
X004103Y002388D01*
X004438Y002053D01*
X004438Y001896D01*
X004891Y001601D02*
X004891Y001542D01*
X004753Y001404D01*
X004202Y001404D01*
X003493Y001817D02*
X003493Y001896D01*
X003493Y001817D02*
X003493Y002152D01*
X004182Y002841D01*
X004694Y002841D01*
X004753Y002900D01*
X004989Y002900D01*
X005003Y002902D01*
X005003Y003292D02*
X005023Y003296D01*
X005143Y003296D01*
X005028Y003294D01*
X005540Y003294D01*
X004595Y002467D02*
X004359Y002467D01*
X004595Y002467D02*
X005048Y002014D01*
X005284Y001443D02*
X005324Y001404D01*
X005324Y001404D01*
X003434Y002506D02*
X003394Y002467D01*
X003139Y002211D01*
X002843Y002211D01*
X002706Y002132D01*
X002706Y001778D02*
X002706Y001680D01*
X002108Y001680D01*
X002115Y001660D01*
X003434Y002506D02*
X003532Y002506D01*
X003020Y002664D02*
X002509Y003176D01*
X002123Y002613D02*
X002123Y002580D01*
X001103Y003827D02*
X001103Y003840D01*
X003788Y004494D02*
X003788Y004494D01*
M02*
