G75*
G70*
%OFA0B0*%
%FSLAX24Y24*%
%IPPOS*%
%LPD*%
%AMOC8*
5,1,8,0,0,1.08239X$1,22.5*
%
%ADD10C,0.0000*%
%ADD11C,0.0040*%
%ADD12C,0.0060*%
%ADD13C,0.0030*%
%ADD14R,0.0157X0.0236*%
%ADD15R,0.0236X0.0157*%
%ADD16C,0.0080*%
%ADD17R,0.0256X0.0197*%
%ADD18R,0.0138X0.0315*%
%ADD19C,0.0050*%
D10*
X000383Y000420D02*
X000383Y005931D01*
X008650Y005931D01*
X008650Y000420D01*
X000383Y000420D01*
X004973Y002392D02*
X004973Y004392D01*
X006973Y004392D01*
X006973Y002392D01*
X004973Y002392D01*
X005223Y002392D02*
X005343Y002392D01*
X005423Y002392D02*
X005543Y002392D01*
X005623Y002392D02*
X005733Y002392D01*
X005813Y002392D02*
X005933Y002392D01*
X006013Y002392D02*
X006133Y002392D01*
X006213Y002392D02*
X006323Y002392D01*
X006403Y002392D02*
X006523Y002392D01*
X006603Y002392D02*
X006723Y002392D01*
X006973Y002642D02*
X006973Y002762D01*
X006973Y002842D02*
X006973Y002962D01*
X006973Y003042D02*
X006973Y003152D01*
X006973Y003232D02*
X006973Y003352D01*
X006973Y003432D02*
X006973Y003552D01*
X006973Y003632D02*
X006973Y003742D01*
X006973Y003822D02*
X006973Y003942D01*
X006973Y004022D02*
X006973Y004142D01*
X006723Y004392D02*
X006603Y004392D01*
X006523Y004392D02*
X006403Y004392D01*
X006323Y004392D02*
X006213Y004392D01*
X006133Y004392D02*
X006013Y004392D01*
X005933Y004392D02*
X005813Y004392D01*
X005733Y004392D02*
X005623Y004392D01*
X005543Y004392D02*
X005423Y004392D01*
X005473Y004392D02*
X004973Y003892D01*
X004973Y003942D02*
X004973Y003822D01*
X004973Y003742D02*
X004973Y003632D01*
X004973Y003552D02*
X004973Y003432D01*
X004973Y003352D02*
X004973Y003232D01*
X004973Y003152D02*
X004973Y003042D01*
X004973Y002962D02*
X004973Y002842D01*
X004973Y002762D02*
X004973Y002642D01*
X004973Y004022D02*
X004973Y004142D01*
X005223Y004392D02*
X005343Y004392D01*
D11*
X004132Y003885D02*
X004132Y003655D01*
X004055Y003578D01*
X003978Y003578D01*
X003901Y003655D01*
X003901Y003885D01*
X003671Y003885D02*
X003671Y003655D01*
X003748Y003578D01*
X003825Y003578D01*
X003901Y003655D01*
X003671Y003885D02*
X004132Y003885D01*
X004132Y003424D02*
X003671Y003424D01*
X003671Y003194D01*
X003748Y003117D01*
X004055Y003117D01*
X004132Y003194D01*
X004132Y003424D01*
X004132Y002964D02*
X003671Y002964D01*
X003671Y002657D02*
X004132Y002964D01*
X004132Y002657D02*
X003671Y002657D01*
X001416Y001955D02*
X000845Y001955D01*
X000845Y001679D02*
X001416Y001679D01*
X001515Y004042D02*
X000944Y004042D01*
X000944Y004317D02*
X001515Y004317D01*
D12*
X001288Y003746D02*
X001918Y003746D01*
X001918Y002644D01*
X001288Y002644D01*
X001288Y003746D01*
X004973Y004272D02*
X004973Y004392D01*
X005093Y004392D01*
X005673Y004652D02*
X005673Y005052D01*
X006853Y004392D02*
X006973Y004392D01*
X006973Y004272D01*
X007223Y003292D02*
X007623Y003292D01*
X006973Y002512D02*
X006973Y002392D01*
X006853Y002392D01*
X005473Y002132D02*
X005473Y001732D01*
X005093Y002392D02*
X004973Y002392D01*
X004973Y002512D01*
D13*
X004702Y004175D02*
X004388Y004489D01*
X004702Y004175D01*
X004545Y004175D02*
X004545Y004489D01*
X004545Y004175D01*
X004388Y004175D02*
X004702Y004489D01*
X004388Y004175D01*
X004388Y004332D02*
X004702Y004332D01*
X004388Y004332D01*
D14*
X003887Y004829D03*
X002902Y003727D03*
X007430Y004868D03*
D15*
X002646Y004435D03*
X002135Y004376D03*
X001406Y005164D03*
X002706Y001955D03*
D16*
X002296Y002022D02*
X002115Y002022D01*
X002207Y001900D01*
X002115Y002022D02*
X001934Y002022D01*
X002029Y001900D02*
X002105Y002016D01*
X001772Y002635D02*
X001434Y002635D01*
X001922Y003090D02*
X001922Y003301D01*
X001772Y003755D02*
X001434Y003755D01*
X001017Y005097D02*
X000835Y005097D01*
X000743Y005219D01*
X000845Y005103D02*
X000921Y005219D01*
X000835Y005097D02*
X000654Y005097D01*
X003257Y002152D02*
X003257Y001640D01*
X004674Y001640D02*
X004674Y002152D01*
D17*
X002066Y002821D03*
X001141Y002821D03*
X001141Y003195D03*
X001141Y003569D03*
X002066Y003569D03*
D18*
X001475Y004179D03*
X000983Y004179D03*
X000885Y001817D03*
X001377Y001817D03*
D19*
X001432Y001163D02*
X001132Y001163D01*
X001032Y001063D01*
X000932Y001163D01*
X000632Y001163D01*
X000432Y000963D01*
X000432Y000663D01*
X000632Y000463D01*
X000932Y000463D01*
X001032Y000563D01*
X001132Y000463D01*
X001432Y000463D01*
X001632Y000663D01*
X001632Y000963D01*
X001432Y001163D01*
X002139Y000963D02*
X002139Y000663D01*
X002339Y000463D01*
X002639Y000463D01*
X002739Y000563D01*
X002839Y000463D01*
X003139Y000463D01*
X003239Y000563D01*
X003339Y000463D01*
X003639Y000463D01*
X003739Y000563D01*
X003839Y000463D01*
X004139Y000463D01*
X004239Y000563D01*
X004339Y000463D01*
X004639Y000463D01*
X004739Y000563D01*
X004839Y000463D01*
X005139Y000463D01*
X005239Y000563D01*
X005339Y000463D01*
X005639Y000463D01*
X005739Y000563D01*
X005839Y000463D01*
X006139Y000463D01*
X006239Y000563D01*
X006339Y000463D01*
X006639Y000463D01*
X006739Y000563D01*
X006839Y000463D01*
X007139Y000463D01*
X007239Y000563D01*
X007339Y000463D01*
X007639Y000463D01*
X007839Y000663D01*
X007839Y000963D01*
X007639Y001163D01*
X007339Y001163D01*
X007239Y001063D01*
X007139Y001163D01*
X006839Y001163D01*
X006739Y001063D01*
X006639Y001163D01*
X006339Y001163D01*
X006239Y001063D01*
X006139Y001163D01*
X005839Y001163D01*
X005739Y001063D01*
X005639Y001163D01*
X005339Y001163D01*
X005239Y001063D01*
X005139Y001163D01*
X004839Y001163D01*
X004739Y001063D01*
X004639Y001163D01*
X004339Y001163D01*
X004239Y001063D01*
X004139Y001163D01*
X003839Y001163D01*
X003739Y001063D01*
X003639Y001163D01*
X003339Y001163D01*
X003239Y001063D01*
X003139Y001163D01*
X002839Y001163D01*
X002739Y001063D01*
X002639Y001163D01*
X002339Y001163D01*
X002139Y000963D01*
X003335Y001640D02*
X003335Y002152D01*
X004595Y002152D01*
X004595Y001640D01*
X003335Y001640D01*
X007907Y001663D02*
X008007Y001563D01*
X007907Y001463D01*
X007907Y001163D01*
X008007Y001063D01*
X007907Y000963D01*
X007907Y000663D01*
X008107Y000463D01*
X008407Y000463D01*
X008607Y000663D01*
X008607Y000963D01*
X008507Y001063D01*
X008607Y001163D01*
X008607Y001463D01*
X008507Y001563D01*
X008607Y001663D01*
X008607Y001963D01*
X008507Y002063D01*
X008607Y002163D01*
X008607Y002463D01*
X008507Y002563D01*
X008607Y002663D01*
X008607Y002963D01*
X008507Y003063D01*
X008607Y003163D01*
X008607Y003463D01*
X008507Y003563D01*
X008607Y003663D01*
X008607Y003963D01*
X008507Y004063D01*
X008607Y004163D01*
X008607Y004463D01*
X008407Y004663D01*
X008107Y004663D01*
X007907Y004463D01*
X007907Y004163D01*
X008007Y004063D01*
X007907Y003963D01*
X007907Y003663D01*
X008007Y003563D01*
X007907Y003463D01*
X007907Y003163D01*
X008007Y003063D01*
X007907Y002963D01*
X007907Y002663D01*
X008007Y002563D01*
X007907Y002463D01*
X007907Y002163D01*
X008007Y002063D01*
X007907Y001963D01*
X007907Y001663D01*
X007907Y005188D02*
X007607Y005188D01*
X007507Y005288D01*
X007407Y005188D01*
X007107Y005188D01*
X007007Y005288D01*
X006907Y005188D01*
X006607Y005188D01*
X006507Y005288D01*
X006407Y005188D01*
X006107Y005188D01*
X006007Y005288D01*
X005907Y005188D01*
X005607Y005188D01*
X005507Y005288D01*
X005407Y005188D01*
X005107Y005188D01*
X004907Y005388D01*
X004907Y005688D01*
X005107Y005888D01*
X005407Y005888D01*
X005507Y005788D01*
X005607Y005888D01*
X005907Y005888D01*
X006007Y005788D01*
X006107Y005888D01*
X006407Y005888D01*
X006507Y005788D01*
X006607Y005888D01*
X006907Y005888D01*
X007007Y005788D01*
X007107Y005888D01*
X007407Y005888D01*
X007507Y005788D01*
X007607Y005888D01*
X007907Y005888D01*
X008007Y005788D01*
X008107Y005888D01*
X008407Y005888D01*
X008607Y005688D01*
X008607Y005388D01*
X008407Y005188D01*
X008107Y005188D01*
X008007Y005288D01*
X007907Y005188D01*
X004857Y005388D02*
X004857Y005688D01*
X004657Y005888D01*
X004357Y005888D01*
X004257Y005788D01*
X004157Y005888D01*
X003857Y005888D01*
X003757Y005788D01*
X003657Y005888D01*
X003357Y005888D01*
X003257Y005788D01*
X003157Y005888D01*
X002857Y005888D01*
X002757Y005788D01*
X002657Y005888D01*
X002357Y005888D01*
X002257Y005788D01*
X002157Y005888D01*
X001857Y005888D01*
X001657Y005688D01*
X001657Y005388D01*
X001857Y005188D01*
X002157Y005188D01*
X002257Y005288D01*
X002357Y005188D01*
X002657Y005188D01*
X002757Y005288D01*
X002857Y005188D01*
X003157Y005188D01*
X003257Y005288D01*
X003357Y005188D01*
X003657Y005188D01*
X003757Y005288D01*
X003857Y005188D01*
X004157Y005188D01*
X004257Y005288D01*
X004357Y005188D01*
X004657Y005188D01*
X004857Y005388D01*
M02*
