G75*
G70*
%OFA0B0*%
%FSLAX24Y24*%
%IPPOS*%
%LPD*%
%AMOC8*
5,1,8,0,0,1.08239X$1,22.5*
%
%ADD10C,0.0000*%
%ADD11C,0.0030*%
%ADD12C,0.0120*%
%ADD13C,0.0160*%
%ADD14C,0.0040*%
D10*
X000383Y000420D02*
X000383Y005931D01*
X008650Y005931D01*
X008650Y000420D01*
X000383Y000420D01*
D11*
X002307Y001242D02*
X002677Y001242D01*
X002677Y001427D01*
X002616Y001489D01*
X002492Y001489D01*
X002431Y001427D01*
X002431Y001242D01*
X002431Y001365D02*
X002307Y001489D01*
X002369Y001610D02*
X002307Y001672D01*
X002307Y001795D01*
X002369Y001857D01*
X002431Y001857D01*
X002492Y001795D01*
X002492Y001672D01*
X002554Y001610D01*
X002616Y001610D01*
X002677Y001672D01*
X002677Y001795D01*
X002616Y001857D01*
X002799Y001857D02*
X003170Y001610D01*
X003311Y001610D02*
X003681Y001857D01*
X003803Y001857D02*
X003803Y001610D01*
X004050Y001857D01*
X004112Y001857D01*
X004174Y001795D01*
X004174Y001672D01*
X004112Y001610D01*
X004112Y001489D02*
X003865Y001489D01*
X003803Y001427D01*
X003803Y001242D01*
X004174Y001242D01*
X004174Y001427D01*
X004112Y001489D01*
X004295Y001427D02*
X004357Y001489D01*
X004604Y001489D01*
X004666Y001427D01*
X004666Y001242D01*
X004295Y001242D01*
X004295Y001427D01*
X004357Y001610D02*
X004295Y001672D01*
X004295Y001795D01*
X004357Y001857D01*
X004419Y001857D01*
X004480Y001795D01*
X004480Y001733D01*
X004480Y001795D02*
X004542Y001857D01*
X004604Y001857D01*
X004666Y001795D01*
X004666Y001672D01*
X004604Y001610D01*
X004787Y001427D02*
X004849Y001489D01*
X005096Y001489D01*
X005158Y001427D01*
X005158Y001242D01*
X004787Y001242D01*
X004787Y001427D01*
X004973Y001610D02*
X004973Y001857D01*
X005158Y001795D02*
X004787Y001795D01*
X004973Y001610D02*
X005158Y001795D01*
X005299Y001795D02*
X005299Y001672D01*
X005361Y001610D01*
X005484Y001610D02*
X005546Y001733D01*
X005546Y001795D01*
X005484Y001857D01*
X005361Y001857D01*
X005299Y001795D01*
X005484Y001610D02*
X005670Y001610D01*
X005670Y001857D01*
X005772Y001795D02*
X005833Y001857D01*
X005895Y001857D01*
X005957Y001795D01*
X005957Y001610D01*
X005833Y001610D01*
X005772Y001672D01*
X005772Y001795D01*
X005957Y001610D02*
X006080Y001733D01*
X006142Y001857D01*
X006135Y002147D02*
X005950Y002147D01*
X005889Y002209D01*
X005889Y002456D01*
X005950Y002518D01*
X006135Y002518D01*
X006135Y002147D01*
X005767Y002209D02*
X005767Y002271D01*
X005705Y002332D01*
X005582Y002332D01*
X005520Y002271D01*
X005520Y002209D01*
X005582Y002147D01*
X005705Y002147D01*
X005767Y002209D01*
X005705Y002332D02*
X005767Y002394D01*
X005767Y002456D01*
X005705Y002518D01*
X005582Y002518D01*
X005520Y002456D01*
X005520Y002394D01*
X005582Y002332D01*
X005355Y002332D02*
X005355Y002209D01*
X005293Y002147D01*
X005046Y002147D01*
X004984Y002209D01*
X004984Y002332D01*
X005046Y002394D01*
X005169Y002394D01*
X005169Y002271D01*
X005293Y002394D02*
X005355Y002332D01*
X005355Y002516D02*
X004984Y002762D01*
X005355Y002762D01*
X005520Y002740D02*
X005520Y002987D01*
X005582Y003049D01*
X005705Y003049D01*
X005767Y002987D01*
X005767Y002926D01*
X005705Y002864D01*
X005520Y002864D01*
X005355Y002884D02*
X005355Y003069D01*
X005293Y003131D01*
X005046Y003131D01*
X004984Y003069D01*
X004984Y002884D01*
X005355Y002884D01*
X005520Y002740D02*
X005582Y002679D01*
X005705Y002679D01*
X005767Y002740D01*
X005889Y002740D02*
X005950Y002679D01*
X006135Y002679D01*
X006135Y003049D01*
X005950Y003049D01*
X005889Y002987D01*
X005889Y002740D01*
X005355Y002516D02*
X004984Y002516D01*
X004922Y002577D02*
X004860Y002516D01*
X004613Y002516D01*
X004551Y002577D01*
X004551Y002701D01*
X004613Y002762D01*
X004488Y002762D02*
X004427Y002762D01*
X004180Y002516D01*
X004118Y002516D01*
X004180Y002394D02*
X004427Y002394D01*
X004488Y002332D01*
X004488Y002147D01*
X004118Y002147D01*
X004118Y002332D01*
X004180Y002394D01*
X004488Y002516D02*
X004488Y002762D01*
X004613Y002884D02*
X004551Y002946D01*
X004551Y003069D01*
X004613Y003131D01*
X004860Y003131D02*
X004922Y003069D01*
X004922Y002946D01*
X004860Y002884D01*
X004613Y002884D01*
X004860Y002762D02*
X004922Y002701D01*
X004922Y002577D01*
X004922Y002394D02*
X004675Y002394D01*
X004551Y002271D01*
X004675Y002147D01*
X004922Y002147D01*
X005361Y001489D02*
X005608Y001489D01*
X005670Y001427D01*
X005670Y001242D01*
X005299Y001242D01*
X005299Y001427D01*
X005361Y001489D01*
X005772Y001427D02*
X005772Y001242D01*
X006142Y001242D01*
X006142Y001427D01*
X006080Y001489D01*
X005833Y001489D01*
X005772Y001427D01*
X006600Y002128D02*
X006723Y002128D01*
X006662Y002128D02*
X006662Y002498D01*
X006723Y002498D02*
X006600Y002498D01*
X006661Y002620D02*
X006599Y002681D01*
X006599Y002928D01*
X006661Y002990D01*
X006784Y002990D01*
X006846Y002928D01*
X006846Y002681D01*
X006784Y002620D01*
X006661Y002620D01*
X006845Y002436D02*
X006907Y002498D01*
X007030Y002498D01*
X007092Y002436D01*
X007092Y002374D01*
X007030Y002313D01*
X006907Y002313D01*
X006845Y002251D01*
X006845Y002189D01*
X006907Y002128D01*
X007030Y002128D01*
X007092Y002189D01*
X007213Y002189D02*
X007275Y002128D01*
X007398Y002128D01*
X007460Y002189D01*
X007460Y002436D01*
X007398Y002498D01*
X007275Y002498D01*
X007213Y002436D01*
X007213Y002189D01*
X007581Y002128D02*
X007581Y002498D01*
X007705Y002374D01*
X007828Y002498D01*
X007828Y002128D01*
X007828Y002620D02*
X007828Y002990D01*
X007705Y002867D01*
X007581Y002990D01*
X007581Y002620D01*
X007460Y002620D02*
X007337Y002620D01*
X007398Y002620D02*
X007398Y002990D01*
X007337Y002990D02*
X007460Y002990D01*
X007398Y003131D02*
X007275Y003131D01*
X007213Y003193D01*
X007092Y003131D02*
X007092Y003502D01*
X007213Y003440D02*
X007275Y003502D01*
X007398Y003502D01*
X007460Y003440D01*
X007460Y003193D01*
X007398Y003131D01*
X007581Y003193D02*
X007643Y003131D01*
X007767Y003131D01*
X007828Y003193D01*
X007767Y003317D02*
X007643Y003317D01*
X007581Y003255D01*
X007581Y003193D01*
X007767Y003317D02*
X007828Y003378D01*
X007828Y003440D01*
X007767Y003502D01*
X007643Y003502D01*
X007581Y003440D01*
X007828Y003624D02*
X007828Y003685D01*
X007581Y003932D01*
X007581Y003994D01*
X007828Y003994D01*
X007767Y004135D02*
X007643Y004135D01*
X007581Y004197D01*
X007581Y004259D01*
X007643Y004321D01*
X007828Y004321D01*
X007828Y004197D01*
X007767Y004135D01*
X007828Y004321D02*
X007705Y004444D01*
X007581Y004506D01*
X007572Y004453D02*
X007511Y004515D01*
X007326Y004515D01*
X007326Y004576D02*
X007326Y004391D01*
X007511Y004391D01*
X007572Y004453D01*
X007387Y004638D02*
X007326Y004576D01*
X007387Y004638D02*
X007511Y004638D01*
X007621Y004746D02*
X007868Y004746D01*
X007744Y004746D02*
X007744Y005116D01*
X007868Y004993D01*
X008133Y005054D02*
X008379Y004807D01*
X008318Y004746D01*
X008194Y004746D01*
X008133Y004807D01*
X008133Y005054D01*
X008194Y005116D01*
X008318Y005116D01*
X008379Y005054D01*
X008379Y004807D01*
X007376Y004746D02*
X007129Y004993D01*
X007129Y005054D01*
X007190Y005116D01*
X007314Y005116D01*
X007376Y005054D01*
X006864Y005054D02*
X006802Y005116D01*
X006679Y005116D01*
X006617Y005054D01*
X006617Y004993D01*
X006679Y004931D01*
X006617Y004869D01*
X006617Y004807D01*
X006679Y004746D01*
X006802Y004746D01*
X006864Y004807D01*
X006740Y004931D02*
X006679Y004931D01*
X006467Y004762D02*
X006406Y004762D01*
X006406Y004391D01*
X006467Y004391D02*
X006344Y004391D01*
X006222Y004453D02*
X006160Y004391D01*
X006037Y004391D01*
X005975Y004453D01*
X005975Y004576D01*
X006037Y004638D01*
X006160Y004638D01*
X006222Y004576D01*
X006222Y004453D01*
X006589Y004391D02*
X006774Y004391D01*
X006836Y004453D01*
X006774Y004515D01*
X006589Y004515D01*
X006589Y004576D02*
X006589Y004391D01*
X006589Y004576D02*
X006651Y004638D01*
X006774Y004638D01*
X006957Y004576D02*
X006957Y004391D01*
X006957Y004576D02*
X007019Y004638D01*
X007204Y004638D01*
X007204Y004391D01*
X007129Y004746D02*
X007376Y004746D01*
X006372Y004931D02*
X006125Y004931D01*
X006186Y005116D02*
X006372Y004931D01*
X006186Y004746D02*
X006186Y005116D01*
X005860Y005116D02*
X005860Y004931D01*
X005736Y004993D01*
X005675Y004993D01*
X005613Y004931D01*
X005613Y004807D01*
X005675Y004746D01*
X005798Y004746D01*
X005860Y004807D01*
X005792Y004638D02*
X005607Y004638D01*
X005607Y004330D01*
X005668Y004268D01*
X005730Y004268D01*
X005792Y004391D02*
X005607Y004391D01*
X005447Y004318D02*
X005385Y004380D01*
X005262Y004380D01*
X005200Y004318D01*
X005200Y004133D01*
X005076Y004133D02*
X005447Y004133D01*
X005447Y004318D01*
X005447Y004501D02*
X005076Y004501D01*
X005076Y004748D01*
X005076Y004869D02*
X005447Y004869D01*
X005447Y005116D01*
X005613Y005116D02*
X005860Y005116D01*
X005262Y004993D02*
X005262Y004869D01*
X005447Y004748D02*
X005447Y004501D01*
X005262Y004501D02*
X005262Y004625D01*
X005076Y004380D02*
X005200Y004256D01*
X005792Y004391D02*
X005854Y004453D01*
X005854Y004576D01*
X005792Y004638D01*
X004443Y004748D02*
X004072Y004748D01*
X004443Y004501D01*
X004072Y004501D01*
X004134Y004380D02*
X004258Y004380D01*
X004258Y004256D01*
X004381Y004133D02*
X004443Y004195D01*
X004443Y004318D01*
X004381Y004380D01*
X004134Y004380D02*
X004072Y004318D01*
X004072Y004195D01*
X004134Y004133D01*
X004381Y004133D01*
X003695Y004133D02*
X003448Y004133D01*
X003324Y004256D01*
X003448Y004380D01*
X003695Y004380D01*
X003633Y004501D02*
X003386Y004501D01*
X003324Y004563D01*
X003324Y004686D01*
X003386Y004748D01*
X003386Y004869D02*
X003324Y004931D01*
X003324Y005055D01*
X003386Y005116D01*
X003203Y005116D02*
X002832Y004869D01*
X002832Y004748D02*
X002956Y004625D01*
X002956Y004686D02*
X002956Y004501D01*
X002832Y004501D02*
X003203Y004501D01*
X003203Y004686D01*
X003141Y004748D01*
X003017Y004748D01*
X002956Y004686D01*
X002691Y004625D02*
X002321Y004625D01*
X002199Y004625D02*
X001828Y004625D01*
X001740Y004722D02*
X001692Y004722D01*
X001595Y004722D02*
X001595Y004673D01*
X001595Y004722D02*
X001402Y004722D01*
X001402Y004770D02*
X001402Y004673D01*
X001402Y004574D02*
X001450Y004525D01*
X001644Y004525D01*
X001595Y004477D02*
X001595Y004574D01*
X001595Y004376D02*
X001595Y004231D01*
X001547Y004182D01*
X001450Y004182D01*
X001402Y004231D01*
X001402Y004376D01*
X001269Y004502D02*
X000949Y004502D01*
X000949Y004342D01*
X001002Y004289D01*
X001109Y004289D01*
X001163Y004342D01*
X001163Y004502D01*
X001163Y004611D02*
X001002Y004611D01*
X000949Y004664D01*
X000949Y004825D01*
X001163Y004825D01*
X001163Y004933D02*
X001163Y004987D01*
X000949Y004987D01*
X000949Y005040D02*
X000949Y004933D01*
X000875Y005094D02*
X000769Y004987D01*
X000875Y005094D02*
X000555Y005094D01*
X000555Y004987D02*
X000555Y005201D01*
X000949Y005148D02*
X001163Y005148D01*
X001163Y005308D01*
X001109Y005362D01*
X000949Y005362D01*
X001002Y005470D02*
X000949Y005524D01*
X000949Y005631D01*
X001002Y005684D01*
X001109Y005684D01*
X001163Y005631D01*
X001163Y005524D01*
X001109Y005470D01*
X001002Y005470D01*
X001402Y005459D02*
X001402Y005604D01*
X001450Y005653D01*
X001499Y005604D01*
X001499Y005507D01*
X001547Y005459D01*
X001595Y005507D01*
X001595Y005653D01*
X001547Y005358D02*
X001402Y005358D01*
X001547Y005358D02*
X001595Y005309D01*
X001595Y005164D01*
X001402Y005164D01*
X001450Y005063D02*
X001547Y005063D01*
X001595Y005015D01*
X001595Y004918D01*
X001547Y004870D01*
X001450Y004870D01*
X001402Y004918D01*
X001402Y005015D01*
X001450Y005063D01*
X001323Y004987D02*
X001269Y004987D01*
X000769Y004878D02*
X000555Y004772D01*
X000769Y004665D01*
X000715Y004234D02*
X000609Y004234D01*
X000555Y004180D01*
X000555Y004074D01*
X000609Y004020D01*
X000715Y004020D01*
X000769Y004074D01*
X000769Y004180D01*
X000715Y004234D01*
X000949Y004127D02*
X000949Y004020D01*
X001002Y003967D01*
X001109Y003967D01*
X001163Y004020D01*
X001163Y004127D01*
X001109Y004180D01*
X001056Y004180D01*
X001056Y003967D01*
X001163Y003858D02*
X001163Y003805D01*
X001056Y003698D01*
X000949Y003698D02*
X001163Y003698D01*
X001109Y003589D02*
X000949Y003589D01*
X000949Y003429D01*
X001002Y003376D01*
X001056Y003429D01*
X001056Y003589D01*
X001109Y003589D02*
X001163Y003536D01*
X001163Y003429D01*
X001402Y003443D02*
X001402Y003347D01*
X001450Y003298D01*
X001547Y003298D01*
X001595Y003347D01*
X001595Y003443D01*
X001547Y003492D01*
X001450Y003492D01*
X001402Y003443D01*
X001450Y003593D02*
X001402Y003641D01*
X001402Y003786D01*
X001692Y003786D01*
X001595Y003786D02*
X001595Y003641D01*
X001547Y003593D01*
X001450Y003593D01*
X001835Y003544D02*
X002125Y003544D01*
X002029Y003689D02*
X001932Y003544D01*
X001835Y003689D01*
X001932Y003443D02*
X001932Y003249D01*
X001980Y003249D02*
X001883Y003249D01*
X001835Y003298D01*
X001835Y003394D01*
X001932Y003443D02*
X001980Y003443D01*
X002029Y003394D01*
X002029Y003298D01*
X001980Y003249D01*
X002029Y003101D02*
X001835Y003101D01*
X001835Y003053D02*
X001835Y003149D01*
X002029Y003101D02*
X002029Y003053D01*
X002125Y003101D02*
X002174Y003101D01*
X002125Y002952D02*
X001835Y002952D01*
X002125Y002758D01*
X001835Y002758D01*
X001692Y002758D02*
X001692Y002903D01*
X001644Y002952D01*
X001547Y002952D01*
X001499Y002903D01*
X001499Y002758D01*
X001402Y002758D02*
X001692Y002758D01*
X001595Y003053D02*
X001402Y003053D01*
X001499Y003053D02*
X001595Y003149D01*
X001595Y003198D01*
X001269Y003214D02*
X001269Y003053D01*
X000949Y003053D01*
X000949Y003214D01*
X001002Y003267D01*
X001056Y003267D01*
X001109Y003214D01*
X001109Y003053D01*
X001109Y003214D02*
X001163Y003267D01*
X001216Y003267D01*
X001269Y003214D01*
X000875Y003267D02*
X000555Y003267D01*
X000875Y003053D01*
X000555Y003053D01*
X000609Y003376D02*
X000662Y003429D01*
X000662Y003589D01*
X000715Y003589D02*
X000555Y003589D01*
X000555Y003429D01*
X000609Y003376D01*
X000769Y003429D02*
X000769Y003536D01*
X000715Y003589D01*
X000769Y003698D02*
X000555Y003698D01*
X000769Y003698D02*
X000769Y003858D01*
X000715Y003911D01*
X000555Y003911D01*
X001402Y003936D02*
X001402Y004081D01*
X001595Y004081D01*
X001828Y004133D02*
X001828Y004318D01*
X001890Y004380D01*
X002137Y004380D01*
X002199Y004318D01*
X002199Y004133D01*
X001828Y004133D01*
X001595Y003888D02*
X001450Y003888D01*
X001402Y003936D01*
X002199Y004501D02*
X002199Y004748D01*
X002199Y004869D02*
X002199Y005055D01*
X002137Y005116D01*
X002014Y005116D01*
X001952Y005055D01*
X001952Y004869D01*
X001828Y004869D02*
X002199Y004869D01*
X002321Y004869D02*
X002691Y005116D01*
X002832Y005116D02*
X003203Y004869D01*
X003386Y004869D02*
X003633Y004869D01*
X003695Y004931D01*
X003695Y005055D01*
X003633Y005116D01*
X004072Y005055D02*
X004072Y004869D01*
X004443Y004869D01*
X004443Y005055D01*
X004381Y005116D01*
X004134Y005116D01*
X004072Y005055D01*
X003695Y004686D02*
X003633Y004748D01*
X003695Y004686D02*
X003695Y004563D01*
X003633Y004501D01*
X002691Y004501D02*
X002691Y004748D01*
X002691Y004869D02*
X002321Y005116D01*
X001952Y004993D02*
X001828Y005116D01*
X005152Y003676D02*
X005152Y003429D01*
X005214Y003368D01*
X005337Y003368D01*
X005399Y003429D01*
X005152Y003676D01*
X005214Y003738D01*
X005337Y003738D01*
X005399Y003676D01*
X005399Y003429D01*
X005520Y003368D02*
X005767Y003368D01*
X005889Y003429D02*
X005889Y003676D01*
X005950Y003738D01*
X006135Y003738D01*
X006135Y003368D01*
X005950Y003368D01*
X005889Y003429D01*
X005767Y003615D02*
X005644Y003738D01*
X005644Y003368D01*
X006845Y003502D02*
X007092Y003255D01*
X007030Y003317D02*
X006845Y003131D01*
X007029Y002990D02*
X007153Y002990D01*
X007214Y002928D01*
X007214Y002867D01*
X007153Y002805D01*
X007029Y002805D01*
X006968Y002743D01*
X006968Y002681D01*
X007029Y002620D01*
X007153Y002620D01*
X007214Y002681D01*
X006968Y002928D02*
X007029Y002990D01*
X003681Y001610D02*
X003311Y001857D01*
X003170Y001857D02*
X002799Y001610D01*
X002799Y001489D02*
X002923Y001365D01*
X002923Y001427D02*
X002923Y001242D01*
X002799Y001242D02*
X003170Y001242D01*
X003170Y001427D01*
X003108Y001489D01*
X002984Y001489D01*
X002923Y001427D01*
X003311Y001365D02*
X003681Y001365D01*
X003681Y001242D02*
X003681Y001489D01*
X002677Y001978D02*
X002677Y002225D01*
X002677Y002102D02*
X002307Y002102D01*
D12*
X003887Y002034D02*
X006249Y002034D01*
X006643Y001640D01*
X007154Y001640D01*
X006249Y002034D02*
X006249Y003786D01*
D13*
X006249Y002034D02*
X006249Y002034D01*
X006938Y001857D02*
X006938Y001424D01*
X007154Y001640D01*
X006938Y001857D01*
D14*
X001485Y001924D02*
X001085Y001924D01*
X001485Y001657D01*
X001085Y001657D01*
X000973Y001630D02*
X000973Y001497D01*
X000973Y001563D02*
X000573Y001563D01*
X000573Y001497D02*
X000573Y001630D01*
X000573Y001767D02*
X000973Y001767D01*
X000573Y002034D01*
X000973Y002034D01*
X001085Y002062D02*
X001085Y002262D01*
X001151Y002329D01*
X001418Y002329D01*
X001485Y002262D01*
X001485Y002062D01*
X001085Y002062D01*
X001151Y001519D02*
X001285Y001519D01*
X001285Y001385D01*
X001418Y001252D02*
X001151Y001252D01*
X001085Y001318D01*
X001085Y001452D01*
X001151Y001519D01*
X000973Y001358D02*
X000706Y001358D01*
X000573Y001225D01*
X000706Y001091D01*
X000973Y001091D01*
X001418Y001252D02*
X001485Y001318D01*
X001485Y001452D01*
X001418Y001519D01*
M02*
