G75*
G70*
%OFA0B0*%
%FSLAX24Y24*%
%IPPOS*%
%LPD*%
%AMOC8*
5,1,8,0,0,1.08239X$1,22.5*
%
%ADD10C,0.0000*%
%ADD11C,0.0400*%
%ADD12C,0.0100*%
%ADD13C,0.0240*%
%ADD14C,0.0080*%
%ADD15C,0.0060*%
D10*
X000383Y000420D02*
X000383Y005931D01*
X008650Y005931D01*
X008650Y000420D01*
X000383Y000420D01*
D11*
X000782Y000813D03*
X001282Y000813D03*
X002489Y000813D03*
X002989Y000813D03*
X003489Y000813D03*
X003989Y000813D03*
X004489Y000813D03*
X004989Y000813D03*
X005489Y000813D03*
X005989Y000813D03*
X006489Y000813D03*
X006989Y000813D03*
X007489Y000813D03*
X008257Y000813D03*
X008257Y001313D03*
X008257Y001813D03*
X008257Y002313D03*
X008257Y002813D03*
X008257Y003313D03*
X008257Y003813D03*
X008257Y004313D03*
X008257Y005538D03*
X007757Y005538D03*
X007257Y005538D03*
X006757Y005538D03*
X006257Y005538D03*
X005757Y005538D03*
X005257Y005538D03*
X004507Y005538D03*
X004007Y005538D03*
X003507Y005538D03*
X003007Y005538D03*
X002507Y005538D03*
X002007Y005538D03*
D12*
X004241Y003490D02*
X004438Y003313D01*
X004576Y003176D01*
X004576Y003097D01*
X007095Y003097D01*
X007391Y002802D01*
X007391Y002034D02*
X007391Y001896D01*
X006997Y001502D01*
X006997Y000813D01*
X006989Y000813D01*
D13*
X007253Y001365D03*
X007706Y001522D03*
X007666Y001837D03*
X007391Y002034D03*
X007095Y001935D03*
X006643Y002093D03*
X007076Y002368D03*
X007391Y002802D03*
X007509Y003097D03*
X007332Y003353D03*
X007922Y003569D03*
X007450Y003845D03*
X007450Y004199D03*
X007194Y004396D03*
X006820Y004868D03*
X005914Y004731D03*
X005678Y004967D03*
X005442Y004731D03*
X005028Y004829D03*
X004674Y004258D03*
X003828Y003983D03*
X004241Y003490D03*
X004576Y003097D03*
X003532Y003333D03*
X003060Y003333D03*
X002509Y003176D03*
X003020Y002664D03*
X003532Y002506D03*
X004359Y002467D03*
X005048Y002014D03*
X005520Y001719D03*
X005678Y002014D03*
X004891Y001601D03*
X005324Y001404D03*
X004202Y001404D03*
X007922Y002565D03*
X003788Y004494D03*
X003276Y004829D03*
X002627Y005085D03*
X001977Y005006D03*
D14*
X001757Y004973D02*
X000523Y004973D01*
X000523Y004894D02*
X001778Y004894D01*
X001757Y004915D02*
X001886Y004786D01*
X002068Y004786D01*
X002100Y004818D01*
X002379Y004539D01*
X002379Y003357D01*
X002289Y003267D01*
X002289Y003084D01*
X002418Y002956D01*
X002499Y002956D01*
X002435Y002892D01*
X002359Y002816D01*
X002359Y001084D01*
X002319Y001068D01*
X002235Y000983D01*
X002189Y000873D01*
X002189Y000754D01*
X002235Y000643D01*
X002318Y000560D01*
X001509Y000560D01*
X001546Y000597D01*
X001584Y000652D01*
X001609Y000714D01*
X001622Y000780D01*
X001622Y000803D01*
X001292Y000803D01*
X001292Y000823D01*
X001622Y000823D01*
X001622Y000847D01*
X001609Y000913D01*
X001584Y000974D01*
X001546Y001030D01*
X001499Y001077D01*
X001443Y001115D01*
X001381Y001140D01*
X001316Y001153D01*
X001292Y001153D01*
X001292Y000823D01*
X001272Y000823D01*
X001272Y001153D01*
X001249Y001153D01*
X001183Y001140D01*
X001121Y001115D01*
X001066Y001077D01*
X001018Y001030D01*
X001007Y001013D01*
X000952Y001068D01*
X000842Y001113D01*
X000723Y001113D01*
X000612Y001068D01*
X000528Y000983D01*
X000523Y000971D01*
X000523Y005791D01*
X001836Y005791D01*
X001752Y005708D01*
X001707Y005597D01*
X001707Y005478D01*
X001752Y005368D01*
X001837Y005283D01*
X001887Y005263D01*
X001887Y005228D01*
X001888Y005226D01*
X001886Y005226D01*
X001757Y005097D01*
X001757Y004915D01*
X001857Y004816D02*
X000523Y004816D01*
X000523Y004737D02*
X002181Y004737D01*
X002102Y004816D02*
X002098Y004816D01*
X002259Y004659D02*
X000523Y004659D01*
X000523Y004580D02*
X002338Y004580D01*
X002379Y004502D02*
X000523Y004502D01*
X000523Y004423D02*
X002379Y004423D01*
X002379Y004345D02*
X000523Y004345D01*
X000523Y004266D02*
X002379Y004266D01*
X002379Y004188D02*
X000523Y004188D01*
X000523Y004109D02*
X002379Y004109D01*
X002379Y004031D02*
X000523Y004031D01*
X000523Y003952D02*
X002379Y003952D01*
X002379Y003874D02*
X000523Y003874D01*
X000523Y003795D02*
X002379Y003795D01*
X002379Y003717D02*
X000523Y003717D01*
X000523Y003638D02*
X002379Y003638D01*
X002379Y003560D02*
X000523Y003560D01*
X000523Y003481D02*
X002379Y003481D01*
X002379Y003403D02*
X000523Y003403D01*
X000523Y003324D02*
X002346Y003324D01*
X002289Y003246D02*
X000523Y003246D01*
X000523Y003167D02*
X002289Y003167D01*
X002289Y003089D02*
X000523Y003089D01*
X000523Y003010D02*
X002363Y003010D01*
X002475Y002932D02*
X000523Y002932D01*
X000523Y002853D02*
X002396Y002853D01*
X002359Y002775D02*
X000523Y002775D01*
X000523Y002696D02*
X002359Y002696D01*
X002359Y002618D02*
X000523Y002618D01*
X000523Y002539D02*
X002359Y002539D01*
X002359Y002461D02*
X000523Y002461D01*
X000523Y002382D02*
X002359Y002382D01*
X002359Y002304D02*
X000523Y002304D01*
X000523Y002225D02*
X002359Y002225D01*
X002359Y002147D02*
X000523Y002147D01*
X000523Y002068D02*
X002359Y002068D01*
X002359Y001990D02*
X000523Y001990D01*
X000523Y001911D02*
X002359Y001911D01*
X002359Y001833D02*
X000523Y001833D01*
X000523Y001754D02*
X002359Y001754D01*
X002359Y001676D02*
X000523Y001676D01*
X000523Y001597D02*
X002359Y001597D01*
X002359Y001519D02*
X000523Y001519D01*
X000523Y001440D02*
X002359Y001440D01*
X002359Y001362D02*
X000523Y001362D01*
X000523Y001283D02*
X002359Y001283D01*
X002359Y001205D02*
X000523Y001205D01*
X000523Y001126D02*
X001149Y001126D01*
X001272Y001126D02*
X001292Y001126D01*
X001292Y001048D02*
X001272Y001048D01*
X001272Y000969D02*
X001292Y000969D01*
X001292Y000891D02*
X001272Y000891D01*
X001292Y000812D02*
X002189Y000812D01*
X002197Y000734D02*
X001613Y000734D01*
X001585Y000655D02*
X002230Y000655D01*
X002301Y000577D02*
X001526Y000577D01*
X001614Y000891D02*
X002196Y000891D01*
X002229Y000969D02*
X001586Y000969D01*
X001529Y001048D02*
X002299Y001048D01*
X002359Y001126D02*
X001416Y001126D01*
X001036Y001048D02*
X000972Y001048D01*
X000592Y001048D02*
X000523Y001048D01*
X007147Y001073D02*
X007147Y001159D01*
X007162Y001145D01*
X007344Y001145D01*
X007434Y001235D01*
X007494Y001235D01*
X007589Y001140D01*
X007588Y001140D01*
X007522Y001153D01*
X007499Y001153D01*
X007499Y000823D01*
X007829Y000823D01*
X007829Y000847D01*
X007816Y000913D01*
X007868Y000860D01*
X007957Y000772D01*
X007957Y000754D01*
X008002Y000643D01*
X008086Y000560D01*
X007716Y000560D01*
X007753Y000597D01*
X007790Y000652D01*
X007816Y000714D01*
X007829Y000780D01*
X007829Y000803D01*
X007499Y000803D01*
X007499Y000823D01*
X007479Y000823D01*
X007479Y001153D01*
X007455Y001153D01*
X007390Y001140D01*
X007328Y001115D01*
X007272Y001077D01*
X007225Y001030D01*
X007214Y001013D01*
X007159Y001068D01*
X007147Y001073D01*
X007179Y001048D02*
X007242Y001048D01*
X007147Y001126D02*
X007356Y001126D01*
X007404Y001205D02*
X007524Y001205D01*
X007499Y001126D02*
X007479Y001126D01*
X007479Y001048D02*
X007499Y001048D01*
X007499Y000969D02*
X007479Y000969D01*
X007479Y000891D02*
X007499Y000891D01*
X007499Y000812D02*
X007917Y000812D01*
X007868Y000860D02*
X007868Y000860D01*
X007838Y000891D02*
X007820Y000891D01*
X007816Y000913D02*
X007816Y000913D01*
X007820Y000734D02*
X007965Y000734D01*
X007998Y000655D02*
X007791Y000655D01*
X007733Y000577D02*
X008069Y000577D01*
X001757Y005051D02*
X000523Y005051D01*
X000523Y005130D02*
X001789Y005130D01*
X001868Y005208D02*
X000523Y005208D01*
X000523Y005287D02*
X001834Y005287D01*
X001755Y005365D02*
X000523Y005365D01*
X000523Y005444D02*
X001721Y005444D01*
X001707Y005522D02*
X000523Y005522D01*
X000523Y005601D02*
X001708Y005601D01*
X001741Y005679D02*
X000523Y005679D01*
X000523Y005758D02*
X001802Y005758D01*
X004017Y005548D02*
X004497Y005548D01*
X004497Y005528D01*
X004167Y005528D01*
X004017Y005528D01*
X004017Y005548D01*
X004517Y005548D02*
X004847Y005548D01*
X004847Y005571D01*
X004834Y005637D01*
X004808Y005699D01*
X004771Y005754D01*
X004734Y005791D01*
X005086Y005791D01*
X005002Y005708D01*
X004957Y005597D01*
X004957Y005478D01*
X005002Y005368D01*
X005037Y005333D01*
X005003Y005333D01*
X004948Y005333D01*
X004896Y005333D01*
X004896Y005333D01*
X004779Y005333D01*
X004808Y005377D01*
X004834Y005439D01*
X004847Y005504D01*
X004847Y005528D01*
X004517Y005528D01*
X004517Y005548D01*
X004816Y005679D02*
X004991Y005679D01*
X004958Y005601D02*
X004841Y005601D01*
X004847Y005522D02*
X004957Y005522D01*
X004971Y005444D02*
X004835Y005444D01*
X004800Y005365D02*
X005005Y005365D01*
X005003Y005333D02*
X005003Y005333D01*
X005052Y005758D02*
X004768Y005758D01*
D15*
X005257Y005538D02*
X005265Y005538D01*
X005265Y005361D01*
X005422Y005203D01*
X006485Y005203D01*
X006820Y004868D01*
X006918Y004770D01*
X006918Y003766D01*
X007332Y003353D01*
X007509Y003097D02*
X007902Y003490D01*
X007922Y003510D01*
X007922Y003569D01*
X008217Y003845D02*
X008257Y003805D01*
X008257Y003805D01*
X008257Y003805D01*
X008257Y003805D01*
X008257Y003813D01*
X008217Y003845D02*
X007450Y003845D01*
X007450Y004199D02*
X007548Y004298D01*
X007548Y004593D01*
X008257Y005302D01*
X008257Y005538D01*
X008257Y005538D01*
X008243Y005520D01*
X007765Y005538D02*
X007765Y005380D01*
X007194Y004809D01*
X007194Y004396D01*
X005914Y004731D02*
X005678Y004494D01*
X003788Y004494D01*
X003788Y004908D02*
X003296Y004416D01*
X003296Y003254D01*
X002706Y002664D01*
X002706Y001266D01*
X002981Y000990D01*
X002981Y000813D01*
X002981Y000813D01*
X002989Y000813D01*
X003473Y000813D02*
X003489Y000813D01*
X003473Y000813D02*
X003473Y000990D01*
X003119Y001345D01*
X003119Y002329D01*
X003119Y002565D01*
X003020Y002664D01*
X003532Y002506D02*
X004202Y001837D01*
X004202Y001404D01*
X004438Y001266D02*
X004005Y000833D01*
X004005Y000813D01*
X003989Y000813D01*
X004489Y000813D02*
X004497Y000813D01*
X004576Y000892D01*
X004576Y002172D01*
X004733Y002329D01*
X004733Y002585D01*
X004024Y003294D01*
X004024Y003609D01*
X004674Y004258D01*
X003828Y003983D02*
X003828Y003313D01*
X004576Y002565D01*
X004576Y002368D01*
X004438Y002231D01*
X004438Y001266D01*
X004891Y001601D02*
X004891Y001699D01*
X004812Y001778D01*
X004812Y002093D01*
X005028Y002309D01*
X006091Y002309D01*
X006544Y001857D01*
X006741Y001857D01*
X006780Y001896D01*
X006879Y001994D01*
X006879Y002172D01*
X007056Y002349D01*
X007076Y002368D01*
X007076Y002368D01*
X007135Y002428D01*
X007627Y002428D01*
X007765Y002565D01*
X007765Y002565D01*
X007922Y002565D01*
X007922Y002565D01*
X007765Y002802D02*
X007548Y002585D01*
X007253Y002585D01*
X007174Y002585D01*
X006977Y002585D01*
X006643Y002250D01*
X006643Y002093D01*
X007095Y002073D02*
X007095Y001935D01*
X007095Y002073D02*
X007272Y002250D01*
X007568Y002250D01*
X007942Y002250D01*
X008198Y002250D01*
X008257Y002309D01*
X008257Y002313D01*
X008296Y001837D02*
X007666Y001837D01*
X007706Y001522D02*
X008060Y001522D01*
X008257Y001325D01*
X008257Y001313D01*
X007922Y000990D02*
X008099Y000813D01*
X008257Y000813D01*
X007922Y000990D02*
X007922Y000990D01*
X007548Y001365D01*
X007253Y001365D01*
X006485Y001207D02*
X005678Y002014D01*
X005520Y001719D02*
X005875Y001384D01*
X005875Y000912D01*
X005973Y000813D01*
X005989Y000813D01*
X006485Y000813D02*
X006489Y000813D01*
X006485Y000813D02*
X006485Y000833D01*
X006485Y001207D01*
X005489Y000813D02*
X005481Y000813D01*
X005422Y000872D01*
X005324Y000971D01*
X005324Y001404D01*
X005107Y000912D02*
X005009Y000813D01*
X005009Y000813D01*
X004989Y000813D01*
X005107Y000912D02*
X005107Y001955D01*
X005048Y002014D01*
X005048Y002014D01*
X004359Y002467D02*
X003532Y003294D01*
X003532Y003333D01*
X003060Y003333D02*
X002489Y002762D01*
X002489Y000813D01*
X002509Y003176D02*
X002509Y004593D01*
X002095Y005006D01*
X001977Y005006D01*
X002017Y005282D02*
X002017Y005538D01*
X002007Y005538D01*
X002017Y005282D02*
X002469Y004829D01*
X003276Y004829D01*
X003788Y004908D02*
X004950Y004908D01*
X005028Y004829D01*
X005127Y005046D02*
X002666Y005046D01*
X002627Y005085D01*
X003001Y005538D02*
X003335Y005203D01*
X004950Y005203D01*
X005206Y005203D01*
X005442Y004967D01*
X005678Y004967D01*
X005442Y004731D02*
X005127Y005046D01*
X003007Y005538D02*
X003001Y005538D01*
X007757Y005538D02*
X007765Y005538D01*
X007765Y002802D02*
X008257Y002802D01*
X008257Y002813D01*
X008296Y001837D02*
X008257Y001813D01*
M02*
