%
M48
M72
T01C0.0120
T02C0.0200
%
T01
X4202Y1404
X4891Y1601
X5324Y1404
X5520Y1719
X5678Y2014
X5048Y2014
X4359Y2467
X3532Y2506
X3020Y2664
X2509Y3176
X3060Y3333
X3532Y3333
X4241Y3490
X4576Y3097
X3828Y3983
X4674Y4258
X5442Y4731
X5678Y4967
X5914Y4731
X5028Y4829
X3788Y4494
X3276Y4829
X2627Y5085
X1977Y5006
X6820Y4868
X7194Y4396
X7450Y4199
X7450Y3845
X7922Y3569
X7332Y3353
X7509Y3097
X7391Y2802
X7922Y2565
X7076Y2368
X6643Y2093
X7095Y1935
X7391Y2034
X7666Y1837
X7706Y1522
X7253Y1365
T02
X782Y813
X1282Y813
X2489Y813
X2989Y813
X3489Y813
X3989Y813
X4489Y813
X4989Y813
X5489Y813
X5989Y813
X6489Y813
X6989Y813
X7489Y813
X8257Y813
X8257Y1313
X8257Y1813
X8257Y2313
X8257Y2813
X8257Y3313
X8257Y3813
X8257Y4313
X8257Y5538
X7757Y5538
X7257Y5538
X6757Y5538
X6257Y5538
X5757Y5538
X5257Y5538
X4507Y5538
X4007Y5538
X3507Y5538
X3007Y5538
X2507Y5538
X2007Y5538
M30
