G75*
G70*
%OFA0B0*%
%FSLAX24Y24*%
%IPPOS*%
%LPD*%
%AMOC8*
5,1,8,0,0,1.08239X$1,22.5*
%
%ADD10C,0.0000*%
%ADD11R,0.0360X0.0160*%
%ADD12R,0.0160X0.0360*%
%ADD13R,0.1320X0.1320*%
%ADD14R,0.0237X0.0276*%
%ADD15R,0.0276X0.0237*%
%ADD16R,0.0512X0.0257*%
%ADD17R,0.0453X0.0465*%
%ADD18R,0.0316X0.0709*%
%ADD19R,0.0355X0.0355*%
%ADD20C,0.0440*%
D10*
X000383Y000420D02*
X000383Y005931D01*
X008650Y005931D01*
X008650Y000420D01*
X000383Y000420D01*
D11*
X005003Y002702D03*
X005003Y002902D03*
X005003Y003092D03*
X005003Y003292D03*
X005003Y003492D03*
X005003Y003692D03*
X005003Y003882D03*
X005003Y004082D03*
X006943Y004082D03*
X006943Y003882D03*
X006943Y003692D03*
X006943Y003492D03*
X006943Y003292D03*
X006943Y003092D03*
X006943Y002902D03*
X006943Y002702D03*
D12*
X006663Y002422D03*
X006463Y002422D03*
X006273Y002422D03*
X006073Y002422D03*
X005873Y002422D03*
X005673Y002422D03*
X005483Y002422D03*
X005283Y002422D03*
X005283Y004362D03*
X005483Y004362D03*
X005673Y004362D03*
X005873Y004362D03*
X006073Y004362D03*
X006273Y004362D03*
X006463Y004362D03*
X006663Y004362D03*
D13*
X005973Y003392D03*
D14*
X004064Y004829D03*
X003709Y004829D03*
X003080Y003727D03*
X002725Y003727D03*
X007253Y004868D03*
X007607Y004868D03*
D15*
X002646Y004613D03*
X002646Y004258D03*
X002135Y004199D03*
X002135Y004553D03*
X001406Y004987D03*
X001406Y005341D03*
X002706Y002132D03*
X002706Y001778D03*
D16*
X002115Y002821D03*
X001091Y002821D03*
X001091Y003195D03*
X001091Y003569D03*
X002115Y003569D03*
D17*
X001574Y004179D03*
X000885Y004179D03*
X000786Y001817D03*
X001475Y001817D03*
D18*
X003493Y001896D03*
X003965Y001896D03*
X004438Y001896D03*
D19*
X002115Y001660D03*
X002115Y002250D03*
X000835Y004868D03*
X000835Y005459D03*
D20*
X002007Y005538D03*
X002507Y005538D03*
X003007Y005538D03*
X003507Y005538D03*
X004007Y005538D03*
X004507Y005538D03*
X005257Y005538D03*
X005757Y005538D03*
X006257Y005538D03*
X006757Y005538D03*
X007257Y005538D03*
X007757Y005538D03*
X008257Y005538D03*
X008257Y004313D03*
X008257Y003813D03*
X008257Y003313D03*
X008257Y002813D03*
X008257Y002313D03*
X008257Y001813D03*
X008257Y001313D03*
X008257Y000813D03*
X007489Y000813D03*
X006989Y000813D03*
X006489Y000813D03*
X005989Y000813D03*
X005489Y000813D03*
X004989Y000813D03*
X004489Y000813D03*
X003989Y000813D03*
X003489Y000813D03*
X002989Y000813D03*
X002489Y000813D03*
X001282Y000813D03*
X000782Y000813D03*
M02*
